<?xml version="1.0" encoding="UTF-8"?>
<svg id="Layer_2" data-name="Layer 2" xmlns="http://www.w3.org/2000/svg" xmlns:xlink="http://www.w3.org/1999/xlink" viewBox="0 0 105 105">
  <defs>
    <style>
      .cls-1 {
        clip-path: url(#clippath-34);
      }

      .cls-2 {
        clip-path: url(#clippath-38);
      }

      .cls-3 {
        clip-path: url(#clippath-21);
      }

      .cls-4 {
        clip-path: url(#clippath-6);
      }

      .cls-5 {
        clip-path: url(#clippath-7);
      }

      .cls-6 {
        clip-path: url(#clippath-17);
      }

      .cls-7 {
        clip-path: url(#clippath-31);
      }

      .cls-8 {
        clip-path: url(#clippath-15);
      }

      .cls-9 {
        clip-path: url(#clippath-33);
      }

      .cls-10 {
        clip-path: url(#clippath-18);
      }

      .cls-11 {
        clip-path: url(#clippath-47);
      }

      .cls-12 {
        clip-path: url(#clippath-4);
      }

      .cls-13 {
        fill: #989014;
      }

      .cls-14 {
        clip-path: url(#clippath-22);
      }

      .cls-15 {
        clip-path: url(#clippath-23);
      }

      .cls-16 {
        fill: #a89f16;
      }

      .cls-17 {
        clip-path: url(#clippath-9);
      }

      .cls-18 {
        fill: #c2b719;
      }

      .cls-19 {
        fill: #a19815;
      }

      .cls-20 {
        clip-path: url(#clippath-10);
      }

      .cls-21 {
        clip-path: url(#clippath-42);
      }

      .cls-22 {
        clip-path: url(#clippath-43);
      }

      .cls-23 {
        clip-path: url(#clippath-25);
      }

      .cls-24 {
        clip-path: url(#clippath-27);
      }

      .cls-25 {
        fill: #dbce1d;
      }

      .cls-26 {
        fill: #857e11;
      }

      .cls-27 {
        clip-path: url(#clippath-11);
      }

      .cls-28 {
        fill: none;
      }

      .cls-29 {
        fill: #9a9114;
      }

      .cls-30 {
        clip-path: url(#clippath-36);
      }

      .cls-31 {
        fill: #afa517;
      }

      .cls-32 {
        fill: #d2c61b;
      }

      .cls-33 {
        clip-path: url(#clippath-35);
      }

      .cls-34 {
        clip-path: url(#clippath-48);
      }

      .cls-35 {
        clip-path: url(#clippath-28);
      }

      .cls-36 {
        fill: #b6ac18;
      }

      .cls-37 {
        clip-path: url(#clippath-1);
      }

      .cls-38 {
        fill: #8c8412;
      }

      .cls-39 {
        fill: #d9cd1c;
      }

      .cls-40 {
        clip-path: url(#clippath-45);
      }

      .cls-41 {
        isolation: isolate;
      }

      .cls-42 {
        clip-path: url(#clippath-46);
      }

      .cls-43 {
        clip-path: url(#clippath-40);
      }

      .cls-44 {
        fill: #7f7811;
      }

      .cls-45 {
        clip-path: url(#clippath-5);
      }

      .cls-46 {
        clip-path: url(#clippath-20);
      }

      .cls-47 {
        clip-path: url(#clippath-8);
      }

      .cls-48 {
        clip-path: url(#clippath-41);
      }

      .cls-49 {
        fill: #cbbf1b;
      }

      .cls-50 {
        clip-path: url(#clippath-3);
      }

      .cls-51 {
        clip-path: url(#clippath-26);
      }

      .cls-52 {
        fill: #817911;
      }

      .cls-53 {
        fill: #fbed21;
      }

      .cls-54 {
        clip-path: url(#clippath-12);
      }

      .cls-55 {
        clip-path: url(#clippath-14);
      }

      .cls-56 {
        fill: #f5e720;
      }

      .cls-57 {
        fill: #bdb219;
      }

      .cls-58 {
        clip-path: url(#clippath-30);
      }

      .cls-59 {
        clip-path: url(#clippath-19);
      }

      .cls-60 {
        fill: #eee11f;
      }

      .cls-61 {
        fill: #fcee21;
      }

      .cls-62 {
        clip-path: url(#clippath-32);
      }

      .cls-63 {
        fill: #938b13;
      }

      .cls-64 {
        fill: #e7da1e;
      }

      .cls-65 {
        clip-path: url(#clippath-39);
      }

      .cls-66 {
        fill: #c6bb1a;
      }

      .cls-67 {
        clip-path: url(#clippath-16);
      }

      .cls-68 {
        fill: #cbc01b;
      }

      .cls-69 {
        clip-path: url(#clippath-2);
      }

      .cls-70 {
        clip-path: url(#clippath-29);
      }

      .cls-71 {
        clip-path: url(#clippath-37);
      }

      .cls-72 {
        clip-path: url(#clippath-13);
      }

      .cls-73 {
        fill: #b7ad18;
      }

      .cls-74 {
        fill: #c4b91a;
      }

      .cls-75 {
        clip-path: url(#clippath-24);
      }

      .cls-76 {
        clip-path: url(#clippath);
      }

      .cls-77 {
        fill: #e0d31d;
      }

      .cls-78 {
        fill: #817a11;
      }

      .cls-79 {
        clip-path: url(#clippath-44);
      }
    </style>
    <clipPath id="clippath">
      <path class="cls-28" d="M37.53,52.84l-.07-.1s0,0,0,0c.02.03.05.07.07.1Z"/>
    </clipPath>
    <clipPath id="clippath-1">
      <path class="cls-28" d="M67.96,42.97c-1.09.17-1.55.28-2.07.48l1.67-.68c.18.17.31.22.4.21Z"/>
    </clipPath>
    <clipPath id="clippath-2">
      <path class="cls-28" d="M26.84,55.89c.4.79.93,1.49,1.58,2.11l-2.18-2.06c-.65-.62-1.17-1.32-1.58-2.11-1.15-2.26-1.2-5.13-.14-8.61l2.18,2.06c-1.05,3.48-1.01,6.35.14,8.61Z"/>
    </clipPath>
    <clipPath id="clippath-3">
      <path class="cls-28" d="M35.26,54.99c-.69-.19-1.26-.49-1.7-.9l-2.18-2.06c.44.42,1.01.72,1.7.9,1.44.39,2.59.24,3.45-.43.85-.68,1.68-2.34,2.49-4.97l2.18,2.06c-.81,2.63-1.64,4.29-2.49,4.97-.86.67-2.01.82-3.45.43Z"/>
    </clipPath>
    <clipPath id="clippath-4">
      <path class="cls-28" d="M33.38,49.47c.03.53.03.97-.08,1.52.02-.22.03-.49-.09-1.06-.07-.34-.19-.75-.37-1.22,0-.02-.02-.04-.02-.06.29-.3,1.51,1.04.64.96-.05-.06-.08-.11-.08-.14Z"/>
    </clipPath>
    <clipPath id="clippath-5">
      <path class="cls-28" d="M34.29,49.74s0,0,0,0c.04.05.08.11.12.16-.04-.04-.08-.1-.12-.15Z"/>
    </clipPath>
    <clipPath id="clippath-6">
      <path class="cls-28" d="M34.41,49.88l-.12-.15c.11-.06.48-1.84,1.44-3.44l3.3,1.22c-.81,2.63-1.64,4.29-2.49,4.97-.86.67-2.01.82-3.45.43s-2.32-1.25-2.65-2.6c-.23-.9-.1-2.29.4-4.17l3.15-2.93c-.73,4.22-1.28,5.54-1.2,5.79-.03-.19,0-.3.05-.36,0,.02.02.05.03.07.07.19.26.7.37,1.24.12.59.1.9.08,1.02.05-.29.13-.69.08-1.51-.01-.2.86.2.91.26.04.05.08.11.12.16Z"/>
    </clipPath>
    <clipPath id="clippath-7">
      <path class="cls-28" d="M65.48,33.79c-.64-.61-1.28-1.21-1.92-1.82h0s0,0,0,0c.64.61,1.28,1.22,1.92,1.82Z"/>
    </clipPath>
    <clipPath id="clippath-8">
      <path class="cls-28" d="M43,54.86s0,0,0,0c0,0,0,0,0,0,0,0,0,0,0,0,.92-1.32,1.79-3.33,2.62-6.03-.22.79-.62,2.25-1.22,3.62-.35.8-.54,1.13-.71,1.42-.22.38-.5.77-.65.93-.02.02-.03.04-.05.06Z"/>
    </clipPath>
    <clipPath id="clippath-9">
      <path class="cls-28" d="M42.43,55.75c-.33.46-.59.73-.71.85.42-.47.74-.9,1.08-1.44q-.15.27-.38.59Z"/>
    </clipPath>
    <clipPath id="clippath-10">
      <path class="cls-28" d="M41.73,56.6c-.32.35-1.07,1.16-2.28,1.87-.83.49-2.03,1.06-2.04,1.06-.78.36-1.23.53-1.99.78-.53.17-1.61.47-2.91.55-.38.02-.9.03-1.28,0-.2,0-.47-.02-.66-.05-.45-.05-1.04-.1-1.49-.12-4.44-1-6.05-3.01-7.53-5.92-1.55-3.04-2.22-5.83.45-13.33.76,1.13,1.77,2.63,2.53,3.76-.26.53-.61,1.25-.8,1.91-.18.62-.45,1.56-.47,2.47-.01.63-.04,2.32,1.11,3.85.09.12.24.25.3.38.01.03.01.07.02.1.07.4.25,1.01.69,1.66.59.87,1.4,1.43,1.97,1.74.35.19.83.43,1.51.64.16.05.33.1.5.14.4.11.82.2,1.03.24q.26.05.64.11.1.01.7.22c.31.11.66.22,1.01.31,0,0,.57.14,1.27.23.43.05.81.06.92.05.05,0,.09,0,.14,0-.05,0-.1,0-.15,0-.14,0-.48,0-.8-.04-.54-.06-1.01-.16-1.14-.19-.39-.09-.66-.17-1.24-.37-.59-.2-.6-.2-.68-.22-.09-.02-.19-.02-.29-.04-.13-.02-.25-.05-.38-.08-.45-.1-.84-.19-1.03-.24-.49-.13-.7-.21-.98-.31-.56-.2-1.95-.81-2.86-2.02-.08-.11-.34-.45-.54-.92-.02-.05-.05-.11-.07-.16-.07-.17-.17-.47-.22-.77,0-.03,0-.07-.02-.1-.06-.13-.21-.26-.3-.38-.32-.4-.57-.97-.7-1.27-.14-.32-.32-.99-.37-1.48-.12-1.23.02-1.92.25-2.93.22-.98.73-2.04.98-2.55-1.05,3.48-1.01,6.35.14,8.61,1.15,2.26,3.31,3.8,6.48,4.65,2.7.72,5.05.73,7.05.02,2-.7,3.61-1.92,4.81-3.65-.25.43-.67,1.08-1.27,1.75-.06.07-.41.44-1.13.91-.28.18-.71.44-1.19.63-.06.02-.14.05-.2.08-.03.01-.08.03-.11.04-.25.09-.62.19-.79.22-.04,0-.09.02-.13.03-.04.01-.07.03-.1.05-.11.06-.42.21-.81.34-.34.11-.61.18-.74.21.4-.09.63-.17.84-.24.23-.08.55-.22.71-.31.04-.02.08-.04.12-.06.04-.01.08-.02.12-.03.15-.03.55-.13.89-.26.29-.11.48-.19.58-.24.41-.2,1.2-.63,1.94-1.37ZM35.27,59.25h-.01s-.01,0-.01,0h-.01s-.01,0-.01,0h-.01s-.01,0-.01,0h-.01s-.01,0-.01,0h-.01s-.01,0-.01,0h-.01s-.01,0-.01,0h-.01s-.01,0-.01,0h-.01s-.01,0-.01,0h.01s.01,0,.01,0h.01s.01,0,.01,0h.01s.01,0,.01,0h.01s.01,0,.01,0h.01s.01,0,.01,0h.01s.01,0,.01,0h.01s.01,0,.01,0h.01s.01,0,.01,0M36.3,59.15h-.06s-.06.02-.06.02h-.06s-.06.02-.06.02h-.06s-.06.02-.06.02h-.06s-.06.02-.06.02h-.07s-.07.01-.07.01h-.07s-.07.01-.07.01h-.07s-.07,0-.07,0h-.07s-.07,0-.07,0h.07s.07,0,.07,0h.07s.07,0,.07,0h.07s.07-.01.07-.01h.07s.07-.01.07-.01h.06s.06-.02.06-.02h.06s.06-.02.06-.02h.06s.06-.02.06-.02h.06s.06-.02.06-.02M36.3,59.16h0s0,0,0,0h0s0,0,0,0h0s0,0,0,0h0s0,0,0,0h0s0,0,0,0h0s0,0,0,0h0s0,0,0,0h0s0,0,0,0h0s0,0,0,0h0s0,0,0,0h0s0,0,0,0h0s0,0,0,0h0s0,0,0,0h0s0,0,0,0h0s0,0,0,0h0s0,0,0,0M36.32,59.15h.01s.01,0,.01,0h.01s.01,0,.01,0h.01s.01,0,.01,0h.01s.01,0,.01,0h.01s.01,0,.01,0h.01s.01,0,.01,0h.01s.01,0,.01,0h.01s.01,0,.01,0h-.01s-.01,0-.01,0h-.01s-.01,0-.01,0h-.01s-.01,0-.01,0h-.01s-.01,0-.01,0h-.01s-.01,0-.01,0h-.01s-.01,0-.01,0h-.01s-.01,0-.01,0h-.01s-.01,0-.01,0M36.52,59.1h0s0,0,0,0h0s0,0,0,0h0s0,0,0,0h0s0,0,0,0h0s0,0,0,0h0s0,0,0,0h0s0,0,0,0h0s0,0,0,0h0s0,0,0,0h0s0,0,0,0h0s0,0,0,0h0s0,0,0,0h0s0,0,0,0h0s0,0,0,0h0s0,0,0,0h0s0,0,0,0"/>
    </clipPath>
    <clipPath id="clippath-11">
      <path class="cls-28" d="M70.71,34.2c-1.71-.32-3.29-.39-4.74-.2-.17-.17-.35-.33-.52-.5-.08-.08-.2-.19-.28-.27s-.2-.19-.28-.27-.2-.19-.28-.27-.2-.19-.28-.27-.19-.18-.27-.26c-.08-.07-.18-.17-.25-.24,1.45-.19,3.03-.12,4.74.2.73.69,1.45,1.38,2.18,2.06Z"/>
    </clipPath>
    <clipPath id="clippath-12">
      <path class="cls-28" d="M70.71,34.2s0,0,0,0c-.08-.07-.18-.17-.25-.24-.08-.08-.19-.18-.27-.26s-.2-.19-.28-.27-.2-.19-.28-.27-.2-.19-.28-.27-.2-.19-.28-.27-.19-.18-.27-.26c-.08-.07-.18-.17-.25-.24,0,0,0,0,0,0,.73.69,1.45,1.38,2.18,2.06Z"/>
    </clipPath>
    <clipPath id="clippath-13">
      <path class="cls-28" d="M64.95,31.69c1.77-.23,3.66.29,5.27.83-2.47-.66-4.68-.85-6.65-.56-1.98.29-3.65,1.02-5.02,2.23-1.27,1.11-2.18,2.43-2.7,3.94q.39-1.31.48-1.53c.17-.41.32-.64.49-.85.07-.08.27-.33.7-.71.04-.03.09-.08.13-.11.29-.25.6-.49.9-.74.34-.3.67-.61,1.02-.91.28-.24.43-.34.56-.43.16-.12.66-.47,1.58-.69.47-.11,3.22-.47,3.25-.48Z"/>
    </clipPath>
    <clipPath id="clippath-14">
      <path class="cls-28" d="M58.84,47.88c.36.59.86,1.19,1.5,1.8l-2.18-2.06c-.64-.61-1.14-1.21-1.5-1.8-1.41-2.33-1.72-4.77-.93-7.35.73.69,1.45,1.38,2.18,2.06-.73-.69-1.45-1.38-2.18-2.06.51-1.65,1.45-3.08,2.81-4.27,1.37-1.2,3.04-1.94,5.02-2.23.73.69,1.45,1.38,2.18,2.06-.72-.69-1.45-1.38-2.17-2.06.08-.01.15-.02.23-.03.73.69,1.45,1.38,2.18,2.06-.08.01-.16.02-.23.03-1.98.29-3.65,1.02-5.02,2.23-1.37,1.19-2.31,2.62-2.81,4.27-.79,2.57-.48,5.02.93,7.35Z"/>
    </clipPath>
    <clipPath id="clippath-15">
      <path class="cls-28" d="M47.61,47.74c.85,1.16,1.98,2.7,2.83,3.85-.24-.02-.8-.06-1.61.42-.74.45-1.34.95-2.19,1.86.09-1.67.4-3.67.97-6.14Z"/>
    </clipPath>
    <clipPath id="clippath-16">
      <path class="cls-28" d="M62.98,50.99q-3.17-.91-4.13-1.21c-.59-.19-1.49-.53-1.91-.73-.71-.33-1.27-.6-2.16-1.23-.29-.2-.65-.51-.91-.75-.19-.17-.41-.44-.59-.62-2.33-3.47-2.43-4.89-.86-9.19.61-3.03,1.17-3.87,3.74-5.7,1.12-.98,2.08-1.8,3.4-2.33,1.13-.05,1.47-.04,2.94.17,1.23.18,2.37.53,2.74.65,1.92.6,3.98,1.88,4.97,2.5-1.86-.62-3.1-.87-4.42-.89-.18,0-.71-.01-3.76.47-.13.02-.52.08-1.04.28-.16.06-.6.24-1.16.68-.08.07-.19.16-.28.22-.04.03-.09.08-.14.12-.34.29-.66.6-1,.89-.3.25-.62.49-.91.75-.33.29-.5.48-.6.59-.23.25-.4.53-.53.84q-.13.31-.54,1.66c-.04.1-.07.2-.1.3-.23.64-.5,1.27-.7,1.92-.19.62-.22,1-.23,1.07-.02.42-.01,1.5.61,2.58.04.07.1.16.15.23.3.46.64.88.95,1.33.32.48.57,1.01.91,1.48.37.52.6.74.86.98.9.83,2.48,1.82,4.7,2.94,0,0,0,0,0,0Z"/>
    </clipPath>
    <clipPath id="clippath-17">
      <path class="cls-28" d="M62.01,60.77c-1.06-.28-1.96-.68-2.7-1.2-.97-1.22-1.35-2.01-1.52-3.12-.19-1.25.03-2.92.3-5.04l1.59-1.7c-.06,3.57-.34,5.49.08,6.14.42.66,2.22,1.1,2.62,1.6.86-.19,2.57.36,3.13.09-.1,0-.15-.02-.17-.04-.1-.13.97-.53,1.04-.76.3.25.53.34.9.42-.42-.08-.72-.11-1.14-.14-.02,0,.26-.42.25-.44,0-.03-.97-.38-.93-.83-.55-.38-2.15-1.25-4.52-2.67-4.1-1.89-5.97-3.95-7.32-6.13-.12-.18-.24-.35-.36-.52.18.19.4.45.59.62.26.24.62.54.91.75.89.64,1.45.9,2.16,1.23.38.18,1.27.53,1.91.73q.96.31,4.13,1.21c2.49,1.4,4.07,2.35,4.74,2.81.99.7,1.62,1.38,1.89,2.03.28.66.31,1.37.07,2.15-.37,1.19-1.22,2.1-2.55,2.71s-3.04.64-5.12.08Z"/>
    </clipPath>
    <clipPath id="clippath-18">
      <path class="cls-28" d="M74.41,42.21c-.73-.69-1.45-1.38-2.18-2.06-.14-.2-.31-.4-.5-.58l2.18,2.06c.19.18.36.38.5.58Z"/>
    </clipPath>
    <clipPath id="clippath-19">
      <path class="cls-28" d="M44.07,53.16c.67-1.38,1.09-2.68,1.54-4.33l2.3.28c-.74,3.29-1.88,5.21-3.03,6.88-1.84,3.18-2.8,3.91-6.33,4.81-2.66.94-5.01,1.45-8.78.05-.24-.05-.47-.09-.69-.14.45.02,1.04.07,1.49.12.39.05.92.06,1.31.06.8,0,1.56-.12,1.85-.16.73-.11,2.23-.45,4.13-1.41,1.31-.66,2.35-1.18,3.5-2.32.44-.44.81-.86,1.08-1.24.08-.11.16-.21.23-.33.12-.19.22-.38.33-.57.01-.02.03-.03.04-.05.31-.35.73-1.03,1.03-1.64ZM43.14,54.68h0s0,0,0,0h0s0,0,0,0h0s0,0,0,0h0s0,0,0,0h0s0,0,0,0h0s0,0,0,0h0s0,0,0,0h0s0,0,0,0h0s0,0,0,0h0s0,0,0,0h0s0,0,0,0h0s0,0,0,0h0s0,0,0,0h0s0,0,0,0h0s0,0,0,0h0s0,0,0,0M45.52,49.16h0s0,0,0,0h0s0,0,0,0h0s0,0,0,0h0s0,0,0,0h0s0,0,0,0h0s0,0,0,0h0s0,0,0,0h0s0,0,0,0h0s0,0,0,0h0s0,0,0,0h0s0,0,0,0h0s0,0,0,0h0s0,0,0,0h0s0,0,0,0h0s0,0,0,0h0s0,0,0,0"/>
    </clipPath>
    <clipPath id="clippath-20">
      <path class="cls-28" d="M69.86,47.75c-2.25-1.23-3.81-2.26-4.68-3.09l-2.18-2.06c.87.83,2.43,1.86,4.68,3.09h0c.73.69,1.45,1.38,2.18,2.06,0,0,0,0,0,0Z"/>
    </clipPath>
    <clipPath id="clippath-21">
      <path class="cls-28" d="M53.95,63.01c.42.65.92,1.25,1.5,1.81l-2.18-2.06c-.58-.55-1.08-1.16-1.5-1.81-1.59-2.48-2.03-5.6-1.33-9.35l2.18,2.06c-.7,3.75-.26,6.87,1.33,9.35Z"/>
    </clipPath>
    <clipPath id="clippath-22">
      <path class="cls-28" d="M75.09,46.29c-.72-.69-1.45-1.38-2.18-2.06.24-1.75,0-3.11-.68-4.09h0s0,0,0,0h0c.22.21.44.42.66.63.5.48,1.01.96,1.51,1.44,0,0,0,0,0,0,.69.98.92,2.34.68,4.09Z"/>
    </clipPath>
    <clipPath id="clippath-23">
      <path class="cls-28" d="M76.08,51.92c-1.27-1.2-3.35-2.59-6.22-4.17-.08-.07-.18-.17-.25-.24-.08-.08-.19-.18-.27-.26s-.2-.19-.28-.27-.2-.19-.28-.27-.2-.19-.28-.27-.2-.19-.28-.27-.19-.18-.27-.26c-.08-.07-.18-.17-.25-.24,2.88,1.58,4.95,2.96,6.22,4.17.65.62,1.52,1.45,2.18,2.06Z"/>
    </clipPath>
    <clipPath id="clippath-24">
      <path class="cls-28" d="M71.61,59.8c-.64-.61-1.28-1.22-1.92-1.82,0,0,0,0,0,0,.24-.78.21-1.48-.07-2.15.73.69,1.45,1.38,2.18,2.06-.03-.03-.07-.06-.09-.09s-.07-.06-.1-.09-.07-.07-.1-.09-.07-.07-.1-.1c-.14-.13-.28-.26-.42-.39-.24-.22-.47-.45-.71-.67-.05-.05-.12-.12-.17-.16s-.12-.11-.17-.16-.11-.11-.16-.16-.11-.1-.16-.15c-.17-.41-.48-.82-.92-1.25l2.18,2.06c.45.42.76.84.92,1.25.28.66.31,1.37.07,2.15-.08-.08-.17-.16-.25-.24Z"/>
    </clipPath>
    <clipPath id="clippath-25">
      <path class="cls-28" d="M69.31,62.75c-1.19.55-2.68.63-4.48.24-.08-.07-.18-.17-.25-.24-.08-.08-.19-.18-.27-.26s-.2-.19-.28-.27-.2-.19-.28-.27-.2-.19-.28-.27-.2-.19-.28-.27-.19-.18-.27-.26c-.08-.07-.18-.17-.25-.24,1.79.39,3.28.3,4.48-.24.73.69,1.45,1.38,2.18,2.06,0,0,0,0,0,0Z"/>
    </clipPath>
    <clipPath id="clippath-26">
      <path class="cls-28" d="M69.31,62.75c-.73-.69-1.45-1.38-2.18-2.06.16-.07.31-.15.45-.23.73.69,1.45,1.38,2.18,2.06-.14.08-.29.16-.45.23Z"/>
    </clipPath>
    <clipPath id="clippath-27">
      <path class="cls-28" d="M69.76,62.52s0,0,0,0c-.73-.69-1.45-1.38-2.18-2.06,0,0,0,0,0,0,.73.69,1.45,1.38,2.18,2.06Z"/>
    </clipPath>
    <clipPath id="clippath-28">
      <path class="cls-28" d="M71.86,60.04c-.32,1.05-1.02,1.88-2.1,2.48-.08-.07-.18-.17-.25-.24-.08-.08-.19-.18-.27-.26s-.2-.19-.28-.27-.2-.19-.28-.27c-.36-.34-.73-.69-1.09-1.03,1.08-.6,1.78-1.43,2.1-2.48.73.69,1.45,1.38,2.18,2.06,0,0,0,0,0,0Z"/>
    </clipPath>
    <clipPath id="clippath-29">
      <path class="cls-28" d="M72.39,34.59c-.57-.15-1.13-.28-1.68-.38-.08-.07-.18-.17-.25-.24-.08-.08-.19-.18-.27-.26s-.2-.19-.28-.27-.2-.19-.28-.27-.2-.19-.28-.27-.2-.19-.28-.27-.19-.18-.27-.26c-.08-.07-.18-.17-.25-.24.55.1,1.11.23,1.68.38h0c.72.69,1.45,1.38,2.17,2.06,0,0,0,0,0,0-.73-.69-1.45-1.38-2.18-2.06,3.01.81,5.3,1.96,6.89,3.47l2.18,2.06c-1.59-1.51-3.89-2.66-6.89-3.47Z"/>
    </clipPath>
    <clipPath id="clippath-30">
      <path class="cls-28" d="M64.18,62.84c-1.43-.38-2.56-.97-3.4-1.77l-2.18-2.06c.84.8,1.98,1.39,3.4,1.77.22.06.44.11.65.16.73.69,1.45,1.38,2.18,2.06-.21-.05-.43-.1-.65-.16Z"/>
    </clipPath>
    <clipPath id="clippath-31">
      <path class="cls-28" d="M69.68,57.98c.64.61,1.28,1.22,1.92,1.82-.64-.61-1.28-1.22-1.92-1.82,0,0,0,0,0,0Z"/>
    </clipPath>
    <clipPath id="clippath-32">
      <path class="cls-28" d="M63.09,38.25c-.67.78-.75,1.49-.75,1.5-.04.42.4,1.61.47,1.73.11.18,1.19,1.83,4.87,4.22-2.92-1.59-4.68-2.85-5.28-3.77-.47-.72-.59-1.46-.35-2.23.19-.62.54-1.1,1.04-1.44Z"/>
    </clipPath>
    <clipPath id="clippath-33">
      <path class="cls-28" d="M54.8,41.84c-.01-.27,0-.64.17-1.26.2-.73.51-1.43.77-2.14,0,0,0,.02,0,.03-.79,2.57-.48,5.02.93,7.35,1.01,1.65,3.12,3.37,6.32,5.17-2.56-1.3-4.28-2.42-5.1-3.34-.27-.3-.49-.63-.56-.73-.29-.43-.52-.9-.81-1.33-.3-.46-.65-.88-.95-1.33-.16-.24-.19-.31-.27-.46-.23-.42-.47-1.19-.5-1.95Z"/>
    </clipPath>
    <clipPath id="clippath-34">
      <path class="cls-28" d="M70.22,32.52h0c-.99-.62-3.05-1.9-4.97-2.5-.37-.12-1.51-.47-2.74-.65-1.46-.21-1.81-.22-2.94-.17.86-.35,1.88-.57,3.19-.63,1.08-.16,2.12-.28,3.22-.27.82.28,1.42.47,2.65,1.08.22.11.51.26.73.38.23.12.53.3.76.43.31.17.75.34,1.07.48,1.48.66,1.79.8,3.16,1.74.38.26,1.17.87,2.17,2.01.64.73,1.01,1.36,1.43,2.08-.74-1.17-1.59-1.92-3.04-2.67-.41-.21-1.21-.54-1.98-.76-1.05-.29-1.43-.36-2.72-.57Z"/>
    </clipPath>
    <clipPath id="clippath-35">
      <path class="cls-28" d="M70.22,32.52c1.4.23,2.03.33,3.46.8,1.02.34,1.8.82,2.22,1.08.36.22,1.07.77,1.55,1.38.31.39.61.77,1.03,1.86-1.48-2.33-4.24-4.04-8.26-5.12Z"/>
    </clipPath>
    <clipPath id="clippath-36">
      <path class="cls-28" d="M64.73,39.5c-.1.03-.23.15-.38.46-.18,1.11.58.52.39.28-.05-.04-.05-.04-.16-.07-.09-.02-.18-.03-.28-.05-.24-.04-.44-.08-.68-.14-.25-.07-.49-.16-.74-.2.39.03.74,0,1.84-.29Z"/>
    </clipPath>
    <clipPath id="clippath-37">
      <path class="cls-28" d="M57.78,58.01c-.85-1.32-1.13-3.1-.85-5.35.35-.37.81-.87,1.16-1.24-.27,2.11-.49,3.79-.3,5.04.17,1.11.55,1.9,1.52,3.12-.63-.44-1.14-.96-1.53-1.57Z"/>
    </clipPath>
    <clipPath id="clippath-38">
      <path class="cls-28" d="M75.69,51.82c.04.07.08.14.11.22.14.31.27.69.4,1.13.1.36.27.99.27.99,0,0,0,0,0,0-.42-1.63-1.26-3.04-2.52-4.25.72.66,1.29,1.19,1.74,1.92Z"/>
    </clipPath>
    <clipPath id="clippath-39">
      <path class="cls-28" d="M76.17,59.69c.9-2.96.92-3.32.31-5.53.43,1.63.32,3.47-.31,5.53h0s0,0,0,0c0,0,0,0,0,0,0,0,0,0,0,0,0,0,0,0,0,0,0,0,0,0,0,0,0,0,0,0,0,0,0,0,0,0,0,0,0,0,0,0,0,0,0,0,0,0,0,0Z"/>
    </clipPath>
    <clipPath id="clippath-40">
      <path class="cls-28" d="M51.78,60.95c-.11-.18-.33-.36-.46-.52-.26-.29-.57-.73-.75-1.08-.24-.46-.69-1.32-.83-2.32-.07-.48-.19-1.37-.05-2.47.19-1.44.47-2.18.76-2.96-.7,3.75-.26,6.87,1.33,9.35,1.59,2.48,4.4,4.27,8.46,5.36,2.79.75,5.24.97,7.34.68,2.11-.28,3.92-1.11,5.44-2.46-.31.33-1.23,1.33-2.65,1.91-.21.08-.69.28-1.39.42-.16.03-.32.06-.48.08-.09.01-.39.05-.67.05-.09,0-.19,0-.27.01-.07.01-.14.03-.21.05-.34.08-.74.13-.88.15-1.29.16-2.53,0-2.88-.05-1.46-.21-2.53-.54-3.03-.72-.33-.12-.39-.13-1.11-.25-.81-.14-2.08-.48-2.83-.78-1.34-.52-2.03-.98-2.44-1.26-.52-.36-1.11-.9-1.45-1.35-.28-.37-.65-.93-.85-1.5-.03-.1-.06-.24-.11-.33Z"/>
    </clipPath>
    <clipPath id="clippath-41">
      <path class="cls-28" d="M76.17,59.69c-.69,2.39-1.14,3.21-3.15,4.83,1.52-1.35,2.57-2.96,3.15-4.83,0,0,0,0,0,0Z"/>
    </clipPath>
    <clipPath id="clippath-42">
      <path class="cls-28" d="M78.48,37.64s-.01-.04-.02-.05c-.38-1.11-1.37-2.45-1.38-2.46-.69-.87-1.28-1.62-2.72-2.7-.56-.42-1.35-.9-1.98-1.2-.35-.17-.83-.38-1.19-.54-.32-.15-.75-.34-1.07-.48-.24-.11-.53-.3-.76-.43-1.44-.81-2.8-1.27-3.39-1.46,1.38.02,2.86.25,4.61.89,5.53,1.06,7.94,3.26,9.88,6.31,2.78,3.89,2.94,5.51.56,13.17-.47-.9-1.09-2.11-1.56-3.02.12-.25.2-.46.25-.59,0,0,0,0,0,0,.04-.1.07-.19.11-.29,0,0,0,0,0,0,.03-.1.06-.19.09-.29,0,0,0,0,0,0,.03-.09.06-.19.08-.28,0,0,0,0,0,0,.03-.09.05-.18.07-.28-.02.09-.05.18-.07.28,0,0,0,0,0,0-.03.09-.06.19-.08.28,0,0,0,0,0,0-.03.1-.06.19-.09.29,0,0,0,0,0,0-.03.1-.07.2-.11.29,0,0,0,0,0,0-.05.13-.14.34-.25.59.82-3.01.49-5.69-1-8.03-.15-.4-.3-.73-.51-1.13.03.05.07.12.1.17.06.11.2.37.34.73.03.07.04.15.08.22.09.15.27.31.39.44.08.1.84.99,1.22,2.34.44,1.55.1,3.04-.02,3.53.38-1.65.23-2.68.02-3.53-.23-.91-.85-1.92-1.22-2.34-.12-.13-.3-.29-.39-.44ZM80.07,43.96h0s0,0,0,0h0s0,0,0,0h0s0,0,0,0h0s0,0,0,0h0s0,0,0,0h0s0,0,0,0h0s0,0,0,0h0s0,0,0,0h0s0,0,0,0h0s0,0,0,0h0s0,0,0,0h0s0,0,0,0h0s0,0,0,0h0s0,0,0,0h0s0,0,0,0h0s0,0,0,0"/>
    </clipPath>
    <clipPath id="clippath-43">
      <path class="cls-28" d="M75.01,62.53c.56-.83.88-1.9,1.16-2.84-.36,3.49-1.5,4.73-2.41,5.72-.22-.27-.52-.62-.74-.89.42-.34,1.4-1.13,1.99-1.99Z"/>
    </clipPath>
    <clipPath id="clippath-44">
      <path class="cls-28" d="M70.53,66.36c1.2-.54,1.96-1.27,2.49-1.84.26.74.43,1.43.61,2.37-1.66,1.42-3.24,2.4-6.28,2.53-2.55.35-5.05.49-8.49-.75-5.59-1.09-8.04-3.37-10.07-6.54-1.42-2.22-2.37-4.34-2.15-8.26.85-.91,1.45-1.42,2.19-1.86.81-.48,1.37-.44,1.61-.42-.19.51-.64,1.7-.76,2.96-.09.89-.07,1.2-.03,1.86.02.37.11.85.21,1.2.19.62.29.96.7,1.72.19.35.48.79.75,1.08.14.16.35.34.46.52.06.09.08.23.11.33.12.35.33.76.64,1.21.54.81,1.32,1.39,1.66,1.63.2.15,1.3.92,3.12,1.5.32.1.74.22.93.27.79.2,1.11.25,1.35.29.25.04.52.08.73.14.1.03.2.06.29.1.49.17,1.19.35,1.41.41.39.09.92.21,1.59.3.99.14,1.96.15,2.88.05.05,0,.51-.06.88-.15.07-.02.14-.03.21-.05.08-.01.18-.01.27-.01.29,0,.61-.04.67-.05.16-.02.32-.04.48-.08.24-.05.87-.18,1.56-.49Z"/>
    </clipPath>
    <clipPath id="clippath-45">
      <path class="cls-28" d="M73.63,66.89c-.18-.94-.35-1.63-.61-2.37l1.4,1.68c-.27.24-.53.47-.79.69Z"/>
    </clipPath>
    <clipPath id="clippath-46">
      <path class="cls-28" d="M72.24,40.14c.69.98.92,2.34.68,4.09l-3.75,1.85c-.01-2.84.36-4.36.15-4.64-.22-.32-1.78-.57-2.21-1.12-.78.19-2.36-.34-2.97-.11.37-.08.55-.04.61.04-.02-.02-.04-.04-.12-.06-.31-.08-.63-.11-.94-.19-.26-.07-.52-.17-.79-.22.45.05.93-.05,1.84-.29.21-.06.28.36.1.45-.91.48-1.26.71-1.62,1.08l1.16-1.27c.19.33,2.09,1.24,4.3,2.86,3.38,1.61,5.36,3.21,6.86,4.65,2.31,1.78,2.73,3.42,3.28,5.56.58,2.21.96,4.03-.35,7.14-.67,3.22-1.34,4.25-4.05,6.24-.2-.24-.46-.56-.66-.79.55-.59,1.3-1.4,1.79-2.78.4-1.11.54-2.11.62-2.94,0,0,0,0,0,0,0,0,0,0,0,0,0,0,0,0,0,0,0,0,0,0,0,0,0,0,0,0,0,0,.04-.12.07-.24.11-.36.09-.31.31-1.02.42-1.52.19-.86.2-1.17.2-1.18,0-.23,0-.76-.19-1.6-.08-.33-.44-1.65-.54-2.01-.06-.2-.19-.59-.36-.98-.32-.72-1.2-1.54-1.85-2.13,0,0,0,0,0,0-.47-.46-1.07-.94-1.77-1.45-1.39-1.01-2.73-1.83-4.5-2.77,0,0,0,0,0,0-.54-.35-1.79-1.16-2.96-2.2-1.53-1.35-1.88-1.95-1.96-2.15-.07-.17-.44-1.19-.41-1.59.01-.13.08-.4.32-.89.07-.13.18-.3.27-.42.04-.06.16-.11.16-.18.18-.12.38-.22.61-.31,1.31-.5,2.9-.5,4.78,0s3.08,1.22,3.76,2.2Z"/>
    </clipPath>
    <clipPath id="clippath-47">
      <path class="cls-28" d="M87.53,13.35l2.18,2.06c13.16,12.49,18.77,32.03,12.87,51.24-8.44,27.47-37.21,43.85-64.27,36.6-8.13-2.18-15.18-6.24-20.83-11.61l-2.18-2.06c5.66,5.37,12.7,9.43,20.83,11.61,27.06,7.25,55.83-9.13,64.27-36.6,5.9-19.21.29-38.75-12.87-51.24Z"/>
    </clipPath>
    <clipPath id="clippath-48">
      <path class="cls-28" d="M65.32,4.11l1.37-2.37c27.06,7.25,42.15,35.39,33.71,62.85s-37.21,43.85-64.27,36.6S-6.01,65.81,2.43,38.34,39.64-5.51,66.69,1.74l-1.37,2.37C39.82-2.73,12.68,12.73,4.73,38.62c-7.96,25.89,6.27,52.43,31.77,59.26,25.51,6.84,52.64-8.61,60.6-34.51,7.96-25.89-6.27-52.43-31.78-59.26Z"/>
    </clipPath>
  </defs>
  <g id="Layer_1-2" data-name="Layer 1">
    <g class="cls-41">
      <path d="M28.68,50.24c.24.33.35.46.7.76-.04-.03-.09-.02-.16.05,0,0-.54-.8-.54-.8Z"/>
      <path d="M29.77,51.06c.32-.22.67-.47,1.12-.88-.31.29-.72.67-1.04.96-.04-.07-.07-.09-.08-.08Z"/>
      <g class="cls-41">
        <g class="cls-76">
          <g class="cls-41">
            <polyline class="cls-26" points="37.53 52.84 37.46 52.75 37.46 52.74 37.52 52.84 37.53 52.84"/>
          </g>
        </g>
      </g>
      <path d="M54.77,56.59c.2.26.38.48.86.82-.05-.03-.11,0-.18.1,0,0-.68-.92-.68-.92Z"/>
      <g class="cls-41">
        <g class="cls-37">
          <g class="cls-41">
            <path class="cls-26" d="M65.88,43.45l1.67-.68c.18.17.31.22.4.21l-2.04.31c0,.09-.01.15-.04.16"/>
          </g>
        </g>
      </g>
      <path d="M80.72,45.93c-.15-.25-.33-.56-1.06-.81.13.05.28-.06.43-.4,0,0,.63,1.21.63,1.21Z"/>
      <polygon class="cls-78" points="30.83 46.15 33.01 48.21 26.69 47.28 24.52 45.22 30.83 46.15"/>
      <polygon class="cls-44" points="51.94 28.23 54.12 30.29 47.66 28.56 45.49 26.5 51.94 28.23"/>
      <g class="cls-41">
        <g class="cls-69">
          <g class="cls-41">
            <path class="cls-31" d="M24.52,45.22l2.18,2.06c-.21.7-.38,1.37-.5,2.02l-2.18-2.06c.12-.65.29-1.32.5-2.02"/>
            <path class="cls-16" d="M24.02,47.24l2.18,2.06c-.25,1.34-.32,2.58-.19,3.71l-2.18-2.06c-.12-1.13-.06-2.37.19-3.71"/>
            <path class="cls-19" d="M23.82,50.95l2.18,2.06c.06.57.17,1.12.33,1.64l-2.18-2.06c-.16-.52-.27-1.06-.33-1.64"/>
            <path class="cls-29" d="M24.16,52.58l2.18,2.06c.13.43.3.84.5,1.23l-2.18-2.06c-.2-.39-.37-.8-.5-1.23"/>
            <path class="cls-63" d="M24.66,53.82l2.18,2.06s0,0,0,.01c.2.4.44.77.7,1.13l-2.18-2.06c-.27-.35-.5-.73-.7-1.13,0,0,0,0,0-.01"/>
            <path class="cls-38" d="M25.36,54.96l2.18,2.06c.26.35.55.67.87.98l-2.18-2.06c-.32-.31-.61-.63-.87-.98"/>
          </g>
        </g>
      </g>
      <path d="M33.56,54.08l-2.18-2.06c-.46-.44-.78-1-.95-1.7-.23-.9-.1-2.29.4-4.17l2.18,2.06c-.5,1.89-.63,3.27-.4,4.17.17.7.49,1.26.95,1.7Z"/>
      <polygon class="cls-73" points="45.49 26.5 47.66 28.56 41.2 49.58 39.02 47.52 45.49 26.5"/>
      <g class="cls-41">
        <g class="cls-50">
          <g class="cls-41">
            <path class="cls-31" d="M39.02,47.52l2.18,2.06c-.41,1.34-.83,2.43-1.25,3.26l-2.18-2.06c.42-.83.84-1.92,1.25-3.26"/>
            <path class="cls-16" d="M37.77,50.78l2.18,2.06c-.31.62-.63,1.09-.95,1.43l-2.18-2.06c.32-.34.63-.82.95-1.43"/>
            <path class="cls-19" d="M36.83,52.22l2.18,2.06c-.1.1-.2.19-.29.27-.02.02-.04.03-.06.05l-2.18-2.06s.04-.03.06-.05c.1-.08.2-.17.29-.27"/>
            <path class="cls-29" d="M36.47,52.54l2.18,2.06c-.13.09-.26.18-.4.25l-2.18-2.06c.14-.07.27-.15.4-.25"/>
            <path class="cls-63" d="M36.07,52.79l2.18,2.06c-.14.07-.29.13-.44.18l-2.18-2.06c.15-.05.3-.11.44-.18"/>
            <path class="cls-38" d="M35.63,52.97l2.18,2.06c-.19.06-.39.11-.6.13l-2.18-2.06c.21-.03.41-.07.6-.13"/>
            <path class="cls-26" d="M35.03,53.1l2.18,2.06c-.58.07-1.22.01-1.95-.18-.69-.19-1.26-.49-1.7-.9l-2.18-2.06c.44.42,1.01.72,1.7.9s1.37.25,1.95.18"/>
          </g>
        </g>
      </g>
      <path d="M26.6,48.04c.19-.06.59-.18.98-.35.98-.44,2.27-1.08,3.25-1.55-.5,1.89-.63,3.27-.4,4.17.34,1.35,1.23,2.22,2.65,2.6s2.59.24,3.45-.43c.85-.68,1.68-2.34,2.49-4.97l2.3.28c-.66,3.67-1.95,5.21-3.54,6.5-1.77,1.38-2.77,2.26-6.07.99-3.89-.86-3.76-.69-4.62-4.6-.34-1.35-.59-2.61-.48-2.64Z"/>
      <path d="M25.71,47.4c.11.18.22.37.5.58.28.21-.09,2.65.57,3.94.74,1.46,3.36,2.49,4.73,3.24,1.62.05,3.97.58,5.31.1.47-.5,2.73-2.21,3.29-2.49.68-.98,1.29-3.07,2.2-5.17l3.3,1.22c-.83,2.69-1.7,4.7-2.62,6.03-1.2,1.73-2.81,2.95-4.81,3.65-2,.71-4.35.7-7.05-.02-3.17-.85-5.33-2.4-6.48-4.65-1.15-2.26-1.2-5.13-.14-8.61,0,0,1.19,2.18,1.19,2.18Z"/>
      <path d="M47.77,29.85l-5.46,17.76c-.91,2.1-1.52,4.19-2.2,5.17-.57.27-2.82,1.99-3.29,2.49-1.34.48-3.69-.05-5.31-.1-1.36-.75-3.99-1.78-4.73-3.24-.76-1.47-.17-4.43-.73-3.89l.63.09c-.27-.45.01,1,.4,2.56.86,3.91.74,3.74,4.62,4.6,3.3,1.27,4.3.39,6.07-.99,1.59-1.29,2.88-2.83,3.54-6.5l5.59-18.18.86.23Z"/>
      <polygon points="26.05 48.03 24.52 45.22 30.83 46.15 26.68 48.13 26.05 48.03"/>
      <polygon class="cls-68" points="33.98 43.22 30.83 46.15 24.52 45.22 21.99 41.46 33.98 43.22"/>
      <polygon points="46.91 29.62 45.49 26.5 51.94 28.23 47.77 29.85 46.91 29.62"/>
      <polygon class="cls-66" points="55.12 25.66 51.94 28.23 45.49 26.5 43.06 22.43 55.12 25.66"/>
      <polygon class="cls-53" points="43.06 22.43 45.49 26.5 39.02 47.52 35.73 46.3 43.06 22.43"/>
      <polygon points="51.94 28.23 54.12 30.29 47.79 50.9 45.61 48.83 51.94 28.23"/>
      <g class="cls-41">
        <g class="cls-12">
          <g class="cls-41">
            <path class="cls-68" d="M33.38,49.47l.11,1.48s-.09,0-.12.02l.05-1.42s-.03-.06-.03-.08"/>
            <polyline class="cls-74" points="33.41 49.54 33.36 50.97 33.35 50.97 33.42 49.55 33.41 49.54"/>
            <polyline class="cls-57" points="33.42 49.55 33.35 50.97 33.34 50.97 33.43 49.57 33.42 49.55"/>
            <polyline class="cls-36" points="33.43 49.57 33.34 50.97 33.33 50.97 33.43 49.58 33.43 49.57"/>
            <path class="cls-31" d="M33.43,49.58l-.11,1.4s0,0-.01,0l.13-1.39s0,0,0-.01"/>
            <path class="cls-16" d="M33.44,49.59l-.13,1.39s0,0,0,0l.15-1.38s0,0,0-.01"/>
            <path class="cls-19" d="M33.45,49.6l-.15,1.38s0,0,0,0c0-.03-.09-.14-.23-.29l.68-1.31c.03.15-.04.25-.3.23,0,0,0,0,0,0"/>
            <path class="cls-16" d="M33.76,49.38l-.68,1.31c-.25-.28-.66-.68-.95-.93l.89-1.15c.28.08.68.49.74.76"/>
            <path class="cls-19" d="M33.02,48.62l-.89,1.15c-.08-.07-.16-.13-.22-.17l.91-.94s.12-.05.2-.03"/>
          </g>
        </g>
      </g>
      <g class="cls-41">
        <g class="cls-45">
          <g class="cls-41">
            <polyline class="cls-60" points="34.29 49.74 34.41 49.88 34.41 49.88 34.29 49.73 34.29 49.74"/>
            <polyline class="cls-64" points="34.29 49.73 34.41 49.88 34.4 49.88 34.29 49.73 34.29 49.73"/>
          </g>
        </g>
      </g>
      <g class="cls-41">
        <g class="cls-4">
          <g class="cls-41">
            <path class="cls-61" d="M35.73,46.3l3.3,1.22c-.74,2.4-1.49,4-2.27,4.77l-2.43-2.61c.15-.32.53-1.92,1.4-3.39"/>
            <path class="cls-56" d="M34.32,49.68l2.43,2.61c-.06.06-.13.12-.19.17l-2.27-2.73s.02-.02.03-.05"/>
            <path class="cls-60" d="M34.29,49.73l2.27,2.73s-.02.02-.03.02c-.03.02-.06.04-.08.06l-2.16-2.82s0,0,0,0c0,0,0,0,0,0"/>
            <path class="cls-64" d="M34.29,49.73l2.16,2.82s-.07.05-.11.08l-2.06-2.91s0,0,.01.01"/>
            <path class="cls-77" d="M34.28,49.72l2.06,2.91s-.09.06-.13.08l-1.95-3.01s.02.01.03.02"/>
            <path class="cls-39" d="M34.25,49.7l1.95,3.01c-.06.03-.12.07-.18.09l-1.83-3.14s.04.02.05.03"/>
            <path class="cls-32" d="M34.2,49.67l1.83,3.14c-.09.04-.18.09-.28.12l-1.67-3.31s.08.04.11.06"/>
            <path class="cls-68" d="M34.09,49.61l1.67,3.31c-.25.09-.51.15-.79.18l-1.25-3.65c.13.04.27.1.38.15"/>
            <path class="cls-74" d="M33.71,49.46l1.25,3.65c-.34.04-.7.03-1.09-.03l-.48-3.65s.17-.02.32.03"/>
            <path class="cls-68" d="M33.39,49.43l.48,3.65c-.19-.03-.38-.06-.59-.11l.13-3.43c-.04-.06-.04-.09-.02-.11"/>
            <path class="cls-74" d="M33.41,49.54l-.13,3.43s-.02,0-.04,0l.17-3.41s0,0,0-.01"/>
            <path class="cls-57" d="M33.42,49.55l-.17,3.41s-.02,0-.04,0l.21-3.39s0,0,0-.01"/>
            <path class="cls-36" d="M33.43,49.57l-.21,3.39s-.02,0-.04,0l.26-3.37s0,0,0-.01"/>
            <path class="cls-31" d="M33.43,49.58l-.26,3.37s-.02,0-.04,0l.31-3.35s0,0,0-.01"/>
            <path class="cls-16" d="M33.44,49.59l-.31,3.35s-.03,0-.04,0l.35-3.32s0,0,0-.01"/>
            <path class="cls-19" d="M33.45,49.6l-.35,3.32s-.01,0-.02,0c-.36-.1-.69-.22-.98-.38l1.65-3.16c.03.15-.04.25-.3.23,0,0,0,0,0,0"/>
            <path class="cls-16" d="M33.76,49.38l-1.65,3.16c-.53-.29-.94-.67-1.24-1.16l2.15-2.76c.28.08.68.49.74.76"/>
            <path class="cls-19" d="M33.02,48.62l-2.15,2.76c-.13-.21-.24-.45-.33-.7l2.24-1.93c.03-.14.13-.17.25-.13"/>
            <path class="cls-29" d="M32.77,48.75l-2.24,1.93c-.04-.12-.08-.23-.11-.36,0,0,0-.02,0-.03l2.35-1.3s0,0,0,0c-.02-.11-.02-.19,0-.26"/>
            <path class="cls-63" d="M32.77,49l-2.35,1.3s-.02-.07-.02-.1l2.37-1.23s0,.02,0,.03"/>
            <path class="cls-38" d="M32.77,48.97l-2.37,1.23c-.19-.9-.05-2.25.43-4.05l3.15-2.93c-.7,4.03-1.23,5.42-1.21,5.75"/>
          </g>
        </g>
      </g>
      <g class="cls-41">
        <g class="cls-5">
          <g class="cls-41">
            <path class="cls-38" d="M63.81,31.93l2.18,2.06c-.08.01-.17.02-.25.03-.64.09-1.25.23-1.83.42l-2.18-2.06c.58-.19,1.19-.33,1.83-.42.08-.01.17-.02.25-.03"/>
          </g>
        </g>
      </g>
      <path d="M28.41,58l-2.18-2.06c1.21,1.15,2.84,1.99,4.9,2.55,2.7.72,5.05.73,7.05.02,2-.7,3.61-1.92,4.81-3.65.92-1.32,1.79-3.33,2.62-6.03l2.18,2.06c-.83,2.69-1.7,4.7-2.62,6.03-1.2,1.73-2.81,2.95-4.81,3.65-2,.71-4.35.7-7.05-.02-2.06-.55-3.69-1.4-4.9-2.55Z"/>
      <g class="cls-41">
        <g class="cls-47">
          <g class="cls-41">
            <path class="cls-38" d="M43.79,57.71l-1.62-1.82c.29-.32.57-.67.82-1.03.92-1.32,1.79-3.33,2.62-6.03l2.3.28c-.74,3.29-1.88,5.21-3.03,6.88-.39.68-.74,1.24-1.09,1.72"/>
          </g>
        </g>
      </g>
      <g class="cls-41">
        <g class="cls-17">
          <g class="cls-41">
            <path class="cls-63" d="M42.15,59.39l-1.43-2.2c.53-.38,1.01-.82,1.46-1.3l1.62,1.82c-.52.73-1.03,1.26-1.64,1.68"/>
            <path class="cls-38" d="M43.79,57.71l-1.62-1.82c.29-.32.57-.67.82-1.03.92-1.32,1.79-3.33,2.62-6.03l2.3.28c-.74,3.29-1.88,5.21-3.03,6.88-.39.68-.74,1.24-1.09,1.72"/>
          </g>
        </g>
      </g>
      <polygon points="41.32 47.8 39.02 47.52 45.49 26.5 46.91 29.62 41.32 47.8"/>
      <g class="cls-41">
        <g class="cls-20">
          <g class="cls-41">
            <path class="cls-61" d="M21.99,41.46l2.53,3.76c-.59,1.95-.83,3.71-.73,5.27h-3.57c-.17-2.12.28-4.84,1.77-9.03"/>
            <path class="cls-56" d="M20.21,50.49h3.57c.03.49.1.96.19,1.4l-3.44.42c-.16-.57-.27-1.17-.32-1.82"/>
            <path class="cls-60" d="M20.54,52.31l3.44-.42c.08.38.19.75.32,1.11l-3.27.71c-.19-.45-.36-.91-.5-1.4"/>
            <path class="cls-64" d="M21.03,53.71l3.27-.71c.11.28.23.56.36.82.06.13.13.25.2.37l-3.06,1.09c-.09-.16-.18-.33-.26-.5-.18-.36-.35-.71-.51-1.07"/>
            <path class="cls-77" d="M21.8,55.29l3.06-1.09c.21.37.46.71.73,1.04l-2.94,1.45c-.3-.44-.58-.91-.85-1.4"/>
            <path class="cls-39" d="M22.65,56.69l2.94-1.45c.22.27.46.52.72.76l-2.87,1.71c-.29-.32-.55-.66-.79-1.02"/>
            <path class="cls-32" d="M23.44,57.71l2.87-1.71c.23.21.47.41.73.61l-2.78,1.9c-.3-.25-.57-.52-.82-.8"/>
            <path class="cls-68" d="M24.26,58.51l2.78-1.9c.24.18.5.35.77.51l-2.65,2.06c-.33-.21-.63-.43-.91-.67"/>
            <path class="cls-74" d="M25.17,59.18l2.65-2.06c.27.16.55.31.85.46l-2.44,2.18c-.38-.18-.73-.37-1.06-.58"/>
            <path class="cls-57" d="M26.23,59.76l2.44-2.18c.31.15.63.29.97.42l-2.1,2.28c-.47-.16-.9-.33-1.3-.52"/>
            <path class="cls-36" d="M27.53,60.28l2.1-2.28c.47.18.98.34,1.51.49.43.12.86.21,1.27.29l-.93,2.61c-.54-.13-1.11-.31-1.72-.53-.83-.16-1.57-.35-2.24-.57"/>
            <path class="cls-31" d="M31.48,61.38l.93-2.61c.58.11,1.15.19,1.7.23l-.5,2.7c-.66-.03-1.36-.13-2.13-.32"/>
            <path class="cls-16" d="M33.61,61.7l.5-2.7c.47.03.92.04,1.36.02l-.25,2.63c-.52.06-1.05.08-1.61.05"/>
            <path class="cls-19" d="M35.22,61.65l.25-2.63c.46-.02.91-.07,1.34-.15v2.47c-.52.14-1.04.24-1.58.3"/>
            <path class="cls-29" d="M36.81,61.34v-2.47c.47-.09.93-.21,1.37-.37.93-.33,1.77-.76,2.53-1.31l1.43,2.2c-.88.61-1.96.99-3.6,1.41-.59.21-1.16.39-1.74.54"/>
            <path class="cls-63" d="M42.15,59.39l-1.43-2.2c.53-.38,1.01-.82,1.46-1.3l1.62,1.82c-.52.73-1.03,1.26-1.64,1.68"/>
            <path class="cls-38" d="M43.79,57.71l-1.62-1.82c.29-.32.57-.67.82-1.03.92-1.32,1.79-3.33,2.62-6.03l2.3.28c-.74,3.29-1.88,5.21-3.03,6.88-.39.68-.74,1.24-1.09,1.72"/>
          </g>
        </g>
      </g>
      <polygon points="47.77 29.85 51.94 28.23 45.61 48.83 42.31 47.61 47.77 29.85"/>
      <g class="cls-41">
        <g class="cls-27">
          <g class="cls-41">
            <path class="cls-26" d="M77.11,35.99l2.18,2.06c-1.59-1.51-3.89-2.66-6.89-3.47-2.36-.63-4.5-.83-6.4-.59l-2.18-2.06c1.91-.24,4.04-.04,6.4.59,3.01.81,5.3,1.96,6.89,3.47"/>
            <path class="cls-38" d="M63.81,31.93l2.18,2.06c-.08.01-.17.02-.25.03-.64.09-1.25.23-1.83.42l-2.18-2.06c.58-.19,1.19-.33,1.83-.42.08-.01.17-.02.25-.03"/>
          </g>
        </g>
      </g>
      <g class="cls-41">
        <g class="cls-54">
          <g class="cls-41">
            <path class="cls-26" d="M77.11,35.99l2.18,2.06c-1.59-1.51-3.89-2.66-6.89-3.47-2.36-.63-4.5-.83-6.4-.59l-2.18-2.06c1.91-.24,4.04-.04,6.4.59,3.01.81,5.3,1.96,6.89,3.47"/>
          </g>
        </g>
      </g>
      <g class="cls-41">
        <g class="cls-72">
          <g class="cls-41">
            <path class="cls-36" d="M74.38,30.29l-1.23,3.23c-.89-.37-1.87-.7-2.93-.99-.39-.1-.77-.2-1.15-.28l.1-3.49c.46.12.93.27,1.42.45,1.47.28,2.71.64,3.79,1.08"/>
            <path class="cls-57" d="M69.17,28.76l-.1,3.49c-.5-.11-.99-.19-1.47-.26l-.17-3.57c.55.07,1.13.18,1.74.34"/>
            <path class="cls-74" d="M67.43,28.42l.17,3.57c-.55-.08-1.08-.12-1.6-.14l-.4-3.53c.59,0,1.19.02,1.83.1"/>
            <path class="cls-68" d="M65.6,28.32l.4,3.53c-.64-.02-1.26,0-1.85.05l-.68-3.41c.71-.09,1.41-.16,2.14-.17"/>
            <path class="cls-32" d="M63.46,28.49l.68,3.41c-.19.02-.39.04-.58.07-.36.05-.7.12-1.04.2l-1.38-3.4c.49-.09,1.02-.15,1.62-.18.23-.03.46-.07.7-.1"/>
            <path class="cls-39" d="M61.15,28.76l1.38,3.4c-.25.06-.5.13-.74.21l-1.66-3.36c.32-.1.66-.18,1.02-.25"/>
            <path class="cls-77" d="M60.13,29.02l1.66,3.36c-.26.08-.52.18-.76.28l-1.86-3.26c.3-.14.62-.27.97-.38"/>
            <path class="cls-64" d="M59.16,29.39l1.86,3.26c-.3.12-.59.26-.87.42l-2.02-3.09c.33-.22.67-.42,1.04-.59"/>
            <path class="cls-60" d="M58.12,29.98l2.02,3.09c-.45.25-.88.53-1.28.85l-2.27-2.75c.51-.44,1-.84,1.53-1.19"/>
            <path class="cls-56" d="M56.6,31.17l2.27,2.75c-.11.09-.22.18-.33.27-.04.03-.08.07-.11.1l-2.47-2.6c.07-.05.14-.1.21-.15.14-.13.29-.25.43-.37"/>
            <path class="cls-60" d="M55.96,31.7l2.47,2.6c-.08.07-.15.14-.22.21l-2.65-2.51c.13-.1.26-.19.4-.29"/>
            <path class="cls-56" d="M55.56,31.99l2.65,2.51c-.32.3-.61.62-.87.95l-3.12-2.3c.36-.37.8-.74,1.35-1.15"/>
            <path class="cls-61" d="M54.21,33.14l3.12,2.3c-.73.9-1.26,1.91-1.6,3.02-.37,1.2-.5,2.38-.39,3.52l-3.96.08c-.1-1.3.27-2.72,1.04-4.83.41-2.04.79-3.08,1.78-4.1"/>
          </g>
        </g>
      </g>
      <g class="cls-41">
        <g class="cls-55">
          <g class="cls-41">
            <path class="cls-38" d="M63.81,31.93l2.18,2.06c-.08.01-.17.02-.25.03-.64.09-1.25.23-1.83.42l-2.18-2.06c.58-.19,1.19-.33,1.83-.42.08-.01.17-.02.25-.03"/>
            <path class="cls-63" d="M61.74,32.39l2.18,2.06c-.49.16-.97.36-1.41.59l-2.18-2.06c.45-.23.92-.43,1.41-.59"/>
            <path class="cls-29" d="M60.32,32.98l2.18,2.06c-.42.22-.82.47-1.2.75l-2.18-2.06c.38-.28.78-.53,1.2-.75"/>
            <path class="cls-19" d="M59.12,33.73l2.18,2.06c-.2.15-.39.3-.58.47-.26.22-.5.46-.72.7l-2.18-2.06c.23-.24.47-.47.72-.7.19-.16.38-.32.58-.47"/>
            <path class="cls-16" d="M57.82,34.89l2.18,2.06c-.61.65-1.12,1.37-1.51,2.14l-2.18-2.06c.39-.77.9-1.49,1.51-2.14"/>
            <path class="cls-31" d="M56.31,37.03l2.18,2.06c-.23.46-.43.94-.58,1.44-.11.36-.2.72-.27,1.07l-2.18-2.06c.07-.35.16-.71.27-1.07.15-.5.35-.98.58-1.44"/>
            <path class="cls-16" d="M55.46,39.54l2.18,2.06c-.16.87-.2,1.72-.11,2.56l-2.18-2.06c-.09-.84-.06-1.69.11-2.56"/>
            <path class="cls-19" d="M55.35,42.1l2.18,2.06c.06.53.17,1.04.32,1.56l-2.18-2.06c-.16-.51-.27-1.03-.32-1.56"/>
            <path class="cls-29" d="M55.68,43.66l2.18,2.06c.15.49.35.98.6,1.47l-2.18-2.06c-.25-.48-.45-.97-.6-1.47"/>
            <path class="cls-63" d="M56.28,45.12l2.18,2.06c.12.23.25.46.39.69.11.18.23.36.37.54l-2.18-2.06c-.14-.18-.26-.36-.37-.54-.14-.23-.27-.46-.39-.69"/>
            <path class="cls-38" d="M57.03,46.35l2.18,2.06c.31.41.69.83,1.14,1.26l-2.18-2.06c-.45-.42-.83-.84-1.14-1.26"/>
          </g>
        </g>
      </g>
      <g class="cls-41">
        <g class="cls-8">
          <g class="cls-41">
            <path class="cls-61" d="M47.61,47.74l2.83,3.85c-.3,1.61-.39,3.1-.27,4.48l-3.54-.18c-.12-2.03.16-4.6.98-8.16"/>
          </g>
        </g>
      </g>
      <path d="M68.69,54.58l2.18,2.06c-.27-.26-.6-.52-.97-.78-.67-.47-2.26-1.41-4.74-2.81-2.06-1.16-3.66-2.28-4.81-3.38l-2.18-2.06c1.15,1.09,2.76,2.22,4.81,3.38,2.49,1.4,4.07,2.35,4.74,2.81.37.26.7.53.97.78Z"/>
      <g class="cls-41">
        <g class="cls-67">
          <g class="cls-41">
            <path class="cls-36" d="M74.38,30.29l-1.23,3.23c-.89-.37-1.87-.7-2.93-.99-.39-.1-.77-.2-1.15-.28l.1-3.49c.46.12.93.27,1.42.45,1.47.28,2.71.64,3.79,1.08"/>
            <path class="cls-57" d="M69.17,28.76l-.1,3.49c-.5-.11-.99-.19-1.47-.26l-.17-3.57c.55.07,1.13.18,1.74.34"/>
            <path class="cls-74" d="M67.43,28.42l.17,3.57c-.55-.08-1.08-.12-1.6-.14l-.4-3.53c.59,0,1.19.02,1.83.1"/>
            <path class="cls-68" d="M65.6,28.32l.4,3.53c-.64-.02-1.26,0-1.85.05l-.68-3.41c.71-.09,1.41-.16,2.14-.17"/>
            <path class="cls-32" d="M63.46,28.49l.68,3.41c-.19.02-.39.04-.58.07-.36.05-.7.12-1.04.2l-1.38-3.4c.49-.09,1.02-.15,1.62-.18.23-.03.46-.07.7-.1"/>
            <path class="cls-39" d="M61.15,28.76l1.38,3.4c-.25.06-.5.13-.74.21l-1.66-3.36c.32-.1.66-.18,1.02-.25"/>
            <path class="cls-77" d="M60.13,29.02l1.66,3.36c-.26.08-.52.18-.76.28l-1.86-3.26c.3-.14.62-.27.97-.38"/>
            <path class="cls-64" d="M59.16,29.39l1.86,3.26c-.3.12-.59.26-.87.42l-2.02-3.09c.33-.22.67-.42,1.04-.59"/>
            <path class="cls-60" d="M58.12,29.98l2.02,3.09c-.45.25-.88.53-1.28.85l-2.27-2.75c.51-.44,1-.84,1.53-1.19"/>
            <path class="cls-56" d="M56.6,31.17l2.27,2.75c-.11.09-.22.18-.33.27-.04.03-.08.07-.11.1l-2.47-2.6c.07-.05.14-.1.21-.15.14-.13.29-.25.43-.37"/>
            <path class="cls-60" d="M55.96,31.7l2.47,2.6c-.08.07-.15.14-.22.21l-2.65-2.51c.13-.1.26-.19.4-.29"/>
            <path class="cls-56" d="M55.56,31.99l2.65,2.51c-.32.3-.61.62-.87.95l-3.12-2.3c.36-.37.8-.74,1.35-1.15"/>
            <path class="cls-61" d="M54.21,33.14l3.12,2.3c-.73.9-1.26,1.91-1.6,3.02-.37,1.2-.5,2.38-.39,3.52l-3.96.08c-.1-1.3.27-2.72,1.04-4.83.41-2.04.79-3.08,1.78-4.1"/>
            <path class="cls-56" d="M51.39,42.07l3.96-.08c.04.37.1.73.18,1.1l-3.9.22c-.13-.41-.21-.82-.24-1.24"/>
            <path class="cls-60" d="M51.63,43.31l3.9-.22c.07.31.17.63.28.94l-3.72.39c-.19-.38-.34-.75-.45-1.11"/>
            <path class="cls-64" d="M52.08,44.42l3.72-.39c.12.33.26.66.42.98l-3.4.71c-.29-.47-.54-.89-.74-1.3"/>
            <path class="cls-77" d="M52.82,45.72l3.4-.71c.13.27.28.54.44.8.12.2.26.4.42.61l-2.92,1.33c-.18-.26-.36-.53-.52-.79-.31-.44-.58-.85-.82-1.23"/>
            <path class="cls-39" d="M54.16,47.75l2.92-1.33c.26.34.56.68.91,1.02l-2.81,1.6c-.38-.42-.71-.86-1.01-1.29"/>
            <path class="cls-32" d="M55.18,49.04l2.81-1.6c.36.36.78.72,1.24,1.09l-2.71,1.83c-.51-.43-.95-.87-1.34-1.32"/>
            <path class="cls-68" d="M56.52,50.35l2.71-1.83c.47.37.99.75,1.57,1.13l-2.51,1.99c-.67-.43-1.25-.86-1.77-1.3"/>
            <path class="cls-74" d="M58.29,51.65l2.51-1.99c.55.37,1.15.73,1.79,1.1l-2.13,2.09c-.81-.39-1.53-.79-2.17-1.2"/>
            <path class="cls-57" d="M60.47,52.86l2.13-2.09c.13.07.26.15.39.22.05.03.1.05.14.08l-2.03,2.1s-.09-.05-.14-.08c-.17-.08-.33-.15-.49-.23"/>
          </g>
        </g>
      </g>
      <polygon class="cls-52" points="56.93 52.66 59.11 54.72 52.62 53.66 50.44 51.59 56.93 52.66"/>
      <path d="M60.78,61.07l-2.18-2.06c-.32-.3-.59-.63-.83-1-.85-1.32-1.13-3.1-.85-5.35l2.18,2.06c-.28,2.25,0,4.03.85,5.35.23.36.51.69.83,1Z"/>
      <g class="cls-41">
        <g class="cls-6">
          <g class="cls-41">
            <path class="cls-77" d="M52.82,45.72l3.4-.71c.13.27.28.54.44.8.12.2.26.4.42.61l-2.92,1.33c-.18-.26-.36-.53-.52-.79-.31-.44-.58-.85-.82-1.23"/>
            <path class="cls-39" d="M54.16,47.75l2.92-1.33c.26.34.56.68.91,1.02l-2.81,1.6c-.38-.42-.71-.86-1.01-1.29"/>
            <path class="cls-32" d="M55.18,49.04l2.81-1.6c.36.36.78.72,1.24,1.09l-2.71,1.83c-.51-.43-.95-.87-1.34-1.32"/>
            <path class="cls-68" d="M56.52,50.35l2.71-1.83c.47.37.99.75,1.57,1.13l-2.51,1.99c-.67-.43-1.25-.86-1.77-1.3"/>
            <path class="cls-74" d="M58.29,51.65l2.51-1.99c.55.37,1.15.73,1.79,1.1l-2.13,2.09c-.81-.39-1.53-.79-2.17-1.2"/>
            <path class="cls-57" d="M60.47,52.86l2.13-2.09c.13.07.26.15.39.22.05.03.1.05.14.08l-2.03,2.1s-.09-.05-.14-.08c-.17-.08-.33-.15-.49-.23"/>
            <path class="cls-74" d="M61.1,53.17l2.03-2.1c2.4,1.36,3.93,2.27,4.59,2.73l-2.25,1.96c-.55-.38-2.1-1.22-4.37-2.58"/>
            <path class="cls-68" d="M65.47,55.75l2.25-1.96s0,0,0,0c.02.02.05.03.07.05l-2.32,1.94s0-.02,0-.03c0,0,0,0,0,0"/>
            <path class="cls-32" d="M65.47,55.79l2.32-1.94s.05.03.07.05l-2.38,1.93s0-.02,0-.03"/>
            <path class="cls-39" d="M65.48,55.82l2.38-1.93s.09.06.13.1l-2.5,1.89s-.01-.04-.01-.06"/>
            <path class="cls-32" d="M65.49,55.88l2.5-1.89c.64.48,1.11.95,1.4,1.41l-3.1,1.12c-.23-.11-.71-.35-.8-.64"/>
            <path class="cls-39" d="M66.29,56.52l3.1-1.12c.04.07.08.14.12.2l-3.14.96s-.05-.02-.08-.04"/>
            <path class="cls-77" d="M66.37,56.56l3.14-.96s.04.09.06.13l-3.18.85s-.02,0-.03-.02"/>
            <path class="cls-64" d="M66.4,56.58l3.18-.85s.03.06.04.09c0,0,0,0,0,0l-3.21.76s0,0,0,0c0,0,0,0,0,0"/>
            <path class="cls-60" d="M66.4,56.59l3.21-.76s.03.08.05.13l-3.27.64s0-.01,0-.01"/>
            <path class="cls-56" d="M66.4,56.6l3.27-.64c.03.07.05.14.07.22l-3.37.49s.03-.05.03-.06"/>
            <path class="cls-61" d="M66.37,56.66l3.37-.49c.12.43.14.88.05,1.36l-3.61-.53c-.11.12.1-.19.18-.34"/>
            <path class="cls-56" d="M66.18,57l3.61.53s-.02.08-.02.12l-3.55-.69s-.03.03-.03.04"/>
            <path class="cls-60" d="M66.22,56.96l3.55.69s0,.04-.01.06l-3.52-.77s-.02.02-.02.03"/>
            <path class="cls-64" d="M66.24,56.94l3.52.77s0,.03-.01.04l-3.49-.84s-.01.02-.02.02"/>
            <path class="cls-77" d="M66.26,56.91l3.49.84s0,.01,0,.02l-3.47-.87s0,0,0,.01"/>
            <path class="cls-39" d="M66.27,56.9l3.47.87s0,.01,0,.02l-3.46-.9s0,0,0,.01"/>
            <path class="cls-32" d="M66.28,56.89l3.46.9s0,.01,0,.02l-3.44-.93s0,0,0,.01"/>
            <path class="cls-68" d="M66.29,56.88l3.44.93s0,.01,0,.02l-3.43-.96s0,0-.01.01"/>
            <path class="cls-74" d="M66.3,56.87l3.43.96s0,.01,0,.02l-3.41-1s0,0-.01.01"/>
            <path class="cls-57" d="M66.31,56.85l3.41,1s0,.01,0,.02l-3.4-1.03s0,0,0,.01"/>
            <path class="cls-74" d="M66.32,56.84l3.4,1.03s0,0,0,.01l-3.39-1.05s0,0,0,0"/>
            <path class="cls-68" d="M66.32,56.83l3.39,1.05s0,0,0,.01l-3.38-1.07s0,0,0,0"/>
            <path class="cls-32" d="M66.33,56.82l3.38,1.07s0,0,0,.01l-3.37-1.09s0,0,0,0"/>
            <path class="cls-39" d="M66.34,56.81l3.37,1.09s0,0,0,.01l-3.36-1.11s0,0,0,0"/>
            <path class="cls-77" d="M66.35,56.8l3.36,1.11s0,0,0,.01l-3.35-1.13s0,0,0,0"/>
            <path class="cls-64" d="M66.35,56.79l3.35,1.13s0,0,0,.01l-3.33-1.16s0,0,0,.01"/>
            <path class="cls-60" d="M66.36,56.78l3.33,1.16s0,0,0,.01l-3.32-1.18s0,0,0,.01"/>
            <path class="cls-56" d="M66.37,56.77l3.32,1.18s0,0,0,.01l-3.31-1.2s0,0,0,.01"/>
            <path class="cls-61" d="M66.38,56.76l3.31,1.2s0,0,0,.01c-.1.33-.24.63-.41.91l-3.19-1.88c.16-.09.28-.18.3-.26,0,0,0,0,0,.01"/>
            <path class="cls-56" d="M66.08,57.01l3.19,1.88c-.21.34-.47.65-.79.93l-2.99-2.48c.15-.1.39-.21.58-.33"/>
            <path class="cls-60" d="M65.51,57.34l2.99,2.48c-.29.25-.62.48-.99.68l-2.12-2.98c-.09-.03-.01-.1.13-.19"/>
            <path class="cls-56" d="M65.38,57.53l2.12,2.98c-.06.03-.12.06-.18.09l-1.89-3.06s-.04,0-.05-.01"/>
            <path class="cls-60" d="M65.43,57.54l1.89,3.06s-.06.03-.09.04l-1.76-3.09s-.02,0-.04,0"/>
            <path class="cls-64" d="M65.47,57.55l1.76,3.09s-.06.03-.09.04l-1.63-3.13s-.03,0-.04,0"/>
            <path class="cls-77" d="M65.51,57.55l1.63,3.13s0,0,0,0c-.08.04-.16.07-.25.11l-1.49-3.2s.08-.02.11-.04c0,0,0,0,0,0"/>
            <path class="cls-39" d="M65.4,57.59l1.49,3.2c-.11.04-.22.08-.34.12l-1.33-3.29c.07,0,.13-.01.19-.03"/>
            <path class="cls-32" d="M65.21,57.62l1.33,3.29c-.16.05-.32.09-.49.13l-1.15-3.42c.11,0,.22,0,.31,0"/>
            <path class="cls-68" d="M64.9,57.62l1.15,3.42c-.29.06-.6.1-.92.12l-.87-3.6c.23.03.45.05.64.06"/>
            <path class="cls-74" d="M64.26,57.56l.87,3.6c-.74.04-1.55-.03-2.43-.22v-3.52c.46-.02,1.04.07,1.56.14"/>
            <path class="cls-57" d="M62.7,57.42v3.52c-.17-.03-.33-.07-.49-.11l.26-3.38c.07-.01.15-.02.23-.02"/>
            <path class="cls-36" d="M62.47,57.44l-.26,3.38s-.08-.02-.13-.03l.33-3.34s.04,0,.05,0"/>
            <path class="cls-31" d="M62.41,57.45l-.33,3.34s-.05-.01-.08-.02c-1.02-.27-1.9-.66-2.62-1.14l1.62-2.94c.57.27,1.16.51,1.37.77.01,0,.02,0,.03,0"/>
            <path class="cls-16" d="M61.01,56.69l-1.62,2.94c-.27-.18-.52-.38-.75-.59l1.75-2.66c.19.11.41.21.62.31"/>
            <path class="cls-19" d="M60.39,56.38l-1.75,2.66c-.18-.17-.34-.34-.49-.52l1.85-2.4c.11.09.25.18.4.26"/>
            <path class="cls-29" d="M60,56.11l-1.85,2.4c-.13-.16-.26-.33-.37-.51-.01-.02-.02-.04-.03-.05l2-2.12s.01.02.02.03c.06.09.14.17.24.25"/>
            <path class="cls-63" d="M59.75,55.83l-2,2.12c-.72-1.15-1.02-2.65-.89-4.49l2.8-2.51c-.08,2.74-.26,4.29.09,4.88"/>
            <path class="cls-38" d="M59.65,50.95l-2.8,2.51c.02-.26.04-.53.08-.8l2.75-2.94c0,.43-.02.84-.03,1.23"/>
          </g>
        </g>
      </g>
      <polygon class="cls-49" points="59.68 49.72 56.93 52.66 50.44 51.59 47.61 47.74 59.68 49.72"/>
      <polygon class="cls-13" points="51.94 28.23 45.61 48.83 47.91 49.11 55.12 25.66 51.94 28.23"/>
      <path d="M71.74,39.56l2.18,2.06c-.73-.69-1.82-1.23-3.26-1.62-1.88-.5-3.47-.51-4.78,0-.84.32-1.39.9-1.65,1.75-.24.78-.12,1.52.35,2.23.14.21.33.44.59.68l-2.18-2.06c-.26-.24-.46-.47-.59-.68-.47-.72-.59-1.46-.35-2.23.26-.84.8-1.43,1.65-1.75,1.31-.5,2.9-.5,4.78,0,1.44.39,2.53.93,3.26,1.62Z"/>
      <g class="cls-41">
        <g class="cls-10">
          <g class="cls-41">
            <path class="cls-38" d="M71.74,39.56l2.18,2.06c.16.15.3.31.43.48l-2.18-2.06c-.13-.17-.27-.33-.43-.48"/>
            <path class="cls-63" d="M72.17,40.04l2.18,2.06s.05.07.07.1c.1.14.19.29.27.45l-2.18-2.06c-.08-.16-.17-.31-.27-.45-.02-.03-.05-.07-.07-.1"/>
          </g>
        </g>
      </g>
      <g class="cls-41">
        <g class="cls-59">
          <g class="cls-41">
            <path class="cls-36" d="M27.53,60.28l2.1-2.28c.47.18.98.34,1.51.49.43.12.86.21,1.27.29l-.93,2.61c-.54-.13-1.11-.31-1.72-.53-.83-.16-1.57-.35-2.24-.57"/>
            <path class="cls-31" d="M31.48,61.38l.93-2.61c.58.11,1.15.19,1.7.23l-.5,2.7c-.66-.03-1.36-.13-2.13-.32"/>
            <path class="cls-16" d="M33.61,61.7l.5-2.7c.47.03.92.04,1.36.02l-.25,2.63c-.52.06-1.05.08-1.61.05"/>
            <path class="cls-19" d="M35.22,61.65l.25-2.63c.46-.02.91-.07,1.34-.15v2.47c-.52.14-1.04.24-1.58.3"/>
            <path class="cls-29" d="M36.81,61.34v-2.47c.47-.09.93-.21,1.37-.37.93-.33,1.77-.76,2.53-1.31l1.43,2.2c-.88.61-1.96.99-3.6,1.41-.59.21-1.16.39-1.74.54"/>
            <path class="cls-63" d="M42.15,59.39l-1.43-2.2c.53-.38,1.01-.82,1.46-1.3l1.62,1.82c-.52.73-1.03,1.26-1.64,1.68"/>
            <path class="cls-38" d="M43.79,57.71l-1.62-1.82c.29-.32.57-.67.82-1.03.92-1.32,1.79-3.33,2.62-6.03l2.3.28c-.74,3.29-1.88,5.21-3.03,6.88-.39.68-.74,1.24-1.09,1.72"/>
          </g>
        </g>
      </g>
      <g class="cls-41">
        <g class="cls-46">
          <g class="cls-41">
            <path class="cls-26" d="M73.9,49.85l2.18,2.06c-1.27-1.2-3.35-2.59-6.22-4.17-2.25-1.23-3.81-2.26-4.68-3.09l-2.18-2.06c.87.83,2.43,1.86,4.68,3.09,2.88,1.58,4.95,2.97,6.22,4.17"/>
          </g>
        </g>
      </g>
      <g class="cls-41">
        <g class="cls-3">
          <g class="cls-41">
            <path class="cls-16" d="M50.44,51.59l2.18,2.06c-.32,1.72-.4,3.31-.24,4.76l-2.18-2.06c-.16-1.45-.08-3.04.24-4.76"/>
            <path class="cls-19" d="M50.2,56.36l2.18,2.06c.08.74.23,1.45.44,2.13l-2.18-2.06c-.21-.67-.35-1.38-.44-2.13"/>
            <path class="cls-29" d="M50.64,58.49l2.18,2.06c.17.56.39,1.1.65,1.61l-2.18-2.06c-.26-.51-.48-1.05-.65-1.61"/>
            <path class="cls-63" d="M51.29,60.09l2.18,2.06c.15.29.31.58.49.85.13.2.26.39.4.57l-2.18-2.06c-.14-.19-.27-.38-.4-.57-.18-.28-.34-.56-.49-.85"/>
            <path class="cls-38" d="M52.17,61.52l2.18,2.06c.33.44.69.85,1.1,1.23l-2.18-2.06c-.41-.39-.78-.8-1.1-1.23"/>
          </g>
        </g>
      </g>
      <g class="cls-41">
        <g class="cls-14">
          <g class="cls-41">
            <path class="cls-63" d="M72.17,40.04l2.18,2.06s.05.07.07.1c.1.14.19.29.27.45l-2.18-2.06c-.08-.16-.17-.31-.27-.45-.02-.03-.05-.07-.07-.1"/>
            <path class="cls-29" d="M72.51,40.6l2.18,2.06c.1.2.19.42.26.65l-2.18-2.06c-.07-.23-.16-.45-.26-.65"/>
            <path class="cls-19" d="M72.77,41.25l2.18,2.06c.09.3.16.62.2.97l-2.18-2.06c-.04-.34-.1-.67-.2-.97"/>
            <path class="cls-16" d="M72.97,42.22l2.18,2.06c.07.6.05,1.27-.05,2.01l-2.18-2.06c.1-.74.12-1.41.05-2.01"/>
          </g>
        </g>
      </g>
      <g class="cls-41">
        <g class="cls-15">
          <g class="cls-41">
            <path class="cls-26" d="M73.9,49.85l2.18,2.06c-1.27-1.2-3.35-2.59-6.22-4.17-2.25-1.23-3.81-2.26-4.68-3.09l-2.18-2.06c.87.83,2.43,1.86,4.68,3.09,2.88,1.58,4.95,2.97,6.22,4.17"/>
          </g>
        </g>
      </g>
      <g class="cls-41">
        <g class="cls-75">
          <g class="cls-41">
            <path class="cls-38" d="M68.69,54.58l2.18,2.06c.22.21.4.41.55.61l-2.18-2.06c-.15-.2-.34-.41-.55-.61"/>
            <path class="cls-63" d="M69.25,55.2l2.18,2.06c.12.15.21.31.29.46l-2.18-2.06c-.08-.15-.17-.31-.29-.46"/>
            <path class="cls-29" d="M69.54,55.66l2.18,2.06c.03.06.06.11.08.17.04.09.07.18.1.27l-2.18-2.06c-.03-.09-.06-.18-.1-.27-.02-.06-.05-.11-.08-.17"/>
            <path class="cls-19" d="M69.72,56.1l2.18,2.06c.05.18.09.35.11.54l-2.18-2.06c-.02-.18-.06-.36-.11-.54"/>
            <path class="cls-16" d="M69.83,56.64l2.18,2.06c.03.3.02.61-.04.93l-2.18-2.06c.06-.32.07-.63.04-.93"/>
            <path class="cls-31" d="M69.79,57.56l2.18,2.06c-.03.14-.06.27-.1.41-.07.22-.15.44-.26.64l-2.18-2.06c.1-.2.19-.42.26-.64.04-.14.08-.28.1-.41"/>
          </g>
        </g>
      </g>
      <g class="cls-41">
        <g class="cls-23">
          <g class="cls-41">
            <path class="cls-63" d="M67.41,60.55l2.18,2.06c-.09.05-.18.09-.28.14-.17.08-.34.14-.52.2l-2.18-2.06c.18-.06.35-.13.52-.2.1-.04.19-.09.28-.14"/>
            <path class="cls-38" d="M66.61,60.89l2.18,2.06c-.32.1-.66.18-1.02.23l-2.18-2.06c.36-.05.7-.12,1.02-.23"/>
            <path class="cls-26" d="M65.59,61.12l2.18,2.06c-1.04.13-2.23.02-3.58-.34-1.43-.38-2.56-.97-3.4-1.77l-2.18-2.06c.84.8,1.98,1.39,3.4,1.77,1.35.36,2.54.48,3.58.34"/>
          </g>
        </g>
      </g>
      <g class="cls-41">
        <g class="cls-51">
          <g class="cls-41">
            <path class="cls-29" d="M68.16,60.09l2.18,2.06c-.23.17-.48.32-.75.47l-2.18-2.06c.27-.14.52-.3.75-.47"/>
            <path class="cls-63" d="M67.41,60.55l2.18,2.06c-.09.05-.18.09-.28.14-.17.08-.34.14-.52.2l-2.18-2.06c.18-.06.35-.13.52-.2.1-.04.19-.09.28-.14"/>
          </g>
        </g>
      </g>
      <g class="cls-41">
        <g class="cls-24">
          <g class="cls-41">
            <path class="cls-29" d="M68.16,60.09l2.18,2.06c-.23.17-.48.32-.75.47l-2.18-2.06c.27-.14.52-.3.75-.47"/>
          </g>
        </g>
      </g>
      <g class="cls-41">
        <g class="cls-35">
          <g class="cls-41">
            <path class="cls-31" d="M69.79,57.56l2.18,2.06c-.03.14-.06.27-.1.41-.07.22-.15.44-.26.64l-2.18-2.06c.1-.2.19-.42.26-.64.04-.14.08-.28.1-.41"/>
            <path class="cls-16" d="M69.43,58.62l2.18,2.06c-.17.34-.39.65-.66.94l-2.18-2.06c.27-.28.49-.6.66-.94"/>
            <path class="cls-19" d="M68.77,59.55l2.18,2.06c-.18.19-.38.37-.61.54l-2.18-2.06c.22-.17.43-.34.61-.54"/>
            <path class="cls-29" d="M68.16,60.09l2.18,2.06c-.23.17-.48.32-.75.47l-2.18-2.06c.27-.14.52-.3.75-.47"/>
          </g>
        </g>
      </g>
      <g class="cls-41">
        <g class="cls-70">
          <g class="cls-41">
            <path class="cls-26" d="M77.11,35.99l2.18,2.06c-1.59-1.51-3.89-2.66-6.89-3.47-2.36-.63-4.5-.83-6.4-.59l-2.18-2.06c1.91-.24,4.04-.04,6.4.59,3.01.81,5.3,1.96,6.89,3.47"/>
          </g>
        </g>
      </g>
      <g class="cls-41">
        <g class="cls-58">
          <g class="cls-41">
            <path class="cls-26" d="M65.59,61.12l2.18,2.06c-1.04.13-2.23.02-3.58-.34-1.43-.38-2.56-.97-3.4-1.77l-2.18-2.06c.84.8,1.98,1.39,3.4,1.77,1.35.36,2.54.48,3.58.34"/>
          </g>
        </g>
      </g>
      <g class="cls-41">
        <g class="cls-7">
          <g class="cls-41">
            <path class="cls-31" d="M69.79,57.56l2.18,2.06c-.03.14-.06.27-.1.41-.07.22-.15.44-.26.64l-2.18-2.06c.1-.2.19-.42.26-.64.04-.14.08-.28.1-.41"/>
          </g>
        </g>
      </g>
      <path d="M53.18,54.65l3.75-1.99c-.28,2.25,0,4.03.85,5.35s2.27,2.24,4.23,2.77c2.08.56,3.79.53,5.12-.08,1.33-.61,2.18-1.52,2.55-2.71.24-.78.21-1.48-.07-2.15-.27-.65-.91-1.33-1.89-2.03-.67-.47-2.26-1.41-4.74-2.81-3.2-1.8-5.31-3.53-6.32-5.17-1.41-2.33-1.72-4.77-.93-7.35.51-1.65,1.45-3.08,2.81-4.27,1.37-1.2,3.04-1.94,5.02-2.23,1.97-.29,4.19-.11,6.65.56l-1.37,2.37c-1.78-.17-3.96-.72-5.48-.49-.65.44-2.56.71-3.45,1.49-.16.55-1.48,2.58-1.89,2.85.07.64.51,4.19.65,4.98.67,1.11,3.02,2.5,5.32,4.21,2.61,1.39,4.17,2.4,4.97,2.96,2.01.95,2.32,1.96,2.86,3.23.54,1.3,1.17,1.89.15,4.13-.65,2.11-.9,3.43-4.23,4.63-2.11.96-3.82,1.57-7.12.26-3.53-.56-4.56-1.96-5.84-3.94-1.28-1.98-2.12-3.62-1.61-4.55Z"/>
      <path d="M51.82,53.78c.17.24.29.4.63.61.32.19.32,2.86,1.32,4.42,1.15,1.8,4.32,3.09,6.85,4.18,2.13.26,4.54.84,6.2.61.7-.42,2.77-.78,3.82-1.71.34-.72,1.76-2.91,2.24-3.42-.05-1.01.54-2.87.27-3.92-.29-1.11-1.57-2.31-1.76-2.95-1.02-.99-3.23-2.19-5.69-3.79-3.63-1.57-5.25-3.17-6.26-4.67-1.81-2.24-1.78-1.82-.68-4.67.76-3.18.38-2.77,3.51-3.74,2-.76,3.6-1.29,6.58-.09,3.21.43,4.16,1.65,5.31,3.28,1.18,1.68,2,2.87,1.51,3.53l-2.76,2.79c.24-1.75,0-3.11-.68-4.09-.68-.98-1.94-1.71-3.76-2.2s-3.47-.51-4.78,0c-.84.32-1.39.9-1.65,1.75-.24.78-.12,1.52.35,2.23.6.92,2.36,2.17,5.28,3.77,2.92,1.6,5.01,3,6.27,4.22,1.25,1.21,2.1,2.63,2.52,4.25.43,1.63.32,3.47-.31,5.53-.57,1.87-1.62,3.48-3.15,4.83-1.52,1.36-3.33,2.18-5.44,2.46-2.11.29-4.56.07-7.34-.68-4.06-1.09-6.87-2.87-8.46-5.36-1.59-2.48-2.03-5.6-1.33-9.35,0,0,1.38,2.19,1.38,2.19Z"/>
      <g class="cls-41">
        <g class="cls-62">
          <g class="cls-41">
            <path class="cls-16" d="M73.6,45.59l-1.41,2.87c-1.18-.85-2.68-1.77-4.51-2.78-1.99-1.09-3.44-2.01-4.35-2.79l1.71-2.65c.78.49,2.14,1.26,3.64,2.36,2.11,1.01,3.68,2.01,4.93,2.97"/>
            <path class="cls-19" d="M65.04,40.25l-1.71,2.65c-.27-.23-.5-.45-.67-.65l1.85-2.35c.12.09.3.21.53.36"/>
            <path class="cls-29" d="M64.51,39.89l-1.85,2.35c-.1-.11-.18-.23-.25-.33,0,0,0,0,0,0l1.98-2.16s0,0,0,0c.02.04.07.08.13.14"/>
            <path class="cls-63" d="M64.38,39.76l-1.98,2.16s-.02-.02-.02-.04l2.04-2.09s-.03-.02-.04-.04"/>
            <path class="cls-38" d="M64.42,39.8l-2.04,2.09s-.01-.02-.02-.04l2.1-2.02s-.03-.02-.04-.03"/>
            <path class="cls-26" d="M64.46,39.83l-2.1,2.02c-.06-.1-.11-.19-.16-.29l2.52-1.6c-.07,0-.15-.05-.26-.13"/>
            <path class="cls-38" d="M64.72,39.96l-2.52,1.6c-.04-.07-.07-.15-.1-.22l2.74-1.4s-.07.03-.13.03"/>
            <path class="cls-63" d="M64.85,39.94l-2.74,1.4c-.17-.43-.21-.87-.13-1.33l2.62-.43c.3-.3.44.22.25.35"/>
            <path class="cls-38" d="M64.6,39.58l-2.62.43s0-.04.01-.06l2.57-.32s.03-.03.04-.05"/>
            <path class="cls-26" d="M64.56,39.63l-2.57.32c.02-.09.04-.18.07-.27.03-.1.06-.19.1-.29l2.17.97c-.01-.1,0-.23.02-.41.07-.15.14-.26.2-.33"/>
            <path class="cls-38" d="M64.33,40.37l-2.17-.97s.02-.05.03-.07l2.16,1.11s0-.04-.01-.07"/>
            <path class="cls-63" d="M64.34,40.43l-2.16-1.11c.19-.44.48-.79.86-1.05l1.71,2c.09.2-.33.56-.42.16"/>
            <path class="cls-38" d="M64.76,40.27l-1.71-2c.06-.04.13-.09.2-.13l1.42,2.04s.08.05.09.08"/>
          </g>
        </g>
      </g>
      <g class="cls-41">
        <g class="cls-9">
          <g class="cls-41">
            <path class="cls-61" d="M54.21,33.14l3.12,2.3c-.73.9-1.26,1.91-1.6,3.02-.37,1.2-.5,2.38-.39,3.52l-3.96.08c-.1-1.3.27-2.72,1.04-4.83.41-2.04.79-3.08,1.78-4.1"/>
            <path class="cls-56" d="M51.39,42.07l3.96-.08c.04.37.1.73.18,1.1l-3.9.22c-.13-.41-.21-.82-.24-1.24"/>
            <path class="cls-60" d="M51.63,43.31l3.9-.22c.07.31.17.63.28.94l-3.72.39c-.19-.38-.34-.75-.45-1.11"/>
            <path class="cls-64" d="M52.08,44.42l3.72-.39c.12.33.26.66.42.98l-3.4.71c-.29-.47-.54-.89-.74-1.3"/>
            <path class="cls-77" d="M52.82,45.72l3.4-.71c.13.27.28.54.44.8.12.2.26.4.42.61l-2.92,1.33c-.18-.26-.36-.53-.52-.79-.31-.44-.58-.85-.82-1.23"/>
            <path class="cls-39" d="M54.16,47.75l2.92-1.33c.26.34.56.68.91,1.02l-2.81,1.6c-.38-.42-.71-.86-1.01-1.29"/>
            <path class="cls-32" d="M55.18,49.04l2.81-1.6c.36.36.78.72,1.24,1.09l-2.71,1.83c-.51-.43-.95-.87-1.34-1.32"/>
            <path class="cls-68" d="M56.52,50.35l2.71-1.83c.47.37.99.75,1.57,1.13l-2.51,1.99c-.67-.43-1.25-.86-1.77-1.3"/>
            <path class="cls-74" d="M58.29,51.65l2.51-1.99c.55.37,1.15.73,1.79,1.1l-2.13,2.09c-.81-.39-1.53-.79-2.17-1.2"/>
            <path class="cls-57" d="M60.47,52.86l2.13-2.09c.13.07.26.15.39.22.05.03.1.05.14.08l-2.03,2.1s-.09-.05-.14-.08c-.17-.08-.33-.15-.49-.23"/>
          </g>
        </g>
      </g>
      <g class="cls-41">
        <g class="cls-1">
          <g class="cls-41">
            <path class="cls-29" d="M81.91,37.8l-2.63,1.4c-.21-.54-.48-1.06-.8-1.56s-.71-.99-1.15-1.44l1.78-2.56c.49.58.94,1.2,1.36,1.87.6.84,1.08,1.57,1.43,2.28"/>
            <path class="cls-19" d="M79.11,33.65l-1.78,2.56c-.34-.34-.71-.66-1.11-.97l1.67-2.83c.44.39.85.81,1.22,1.25"/>
            <path class="cls-16" d="M77.89,32.4l-1.67,2.83c-.4-.3-.83-.59-1.3-.85l1.53-3.05c.53.33,1,.69,1.44,1.07"/>
            <path class="cls-31" d="M76.45,31.33l-1.53,3.05c-.54-.31-1.13-.6-1.77-.87l1.23-3.23c.77.31,1.45.66,2.06,1.05"/>
            <path class="cls-36" d="M74.38,30.29l-1.23,3.23c-.89-.37-1.87-.7-2.93-.99-.39-.1-.77-.2-1.15-.28l.1-3.49c.46.12.93.27,1.42.45,1.47.28,2.71.64,3.79,1.08"/>
            <path class="cls-57" d="M69.17,28.76l-.1,3.49c-.5-.11-.99-.19-1.47-.26l-.17-3.57c.55.07,1.13.18,1.74.34"/>
            <path class="cls-74" d="M67.43,28.42l.17,3.57c-.55-.08-1.08-.12-1.6-.14l-.4-3.53c.59,0,1.19.02,1.83.1"/>
            <path class="cls-68" d="M65.6,28.32l.4,3.53c-.64-.02-1.26,0-1.85.05l-.68-3.41c.71-.09,1.41-.16,2.14-.17"/>
            <path class="cls-32" d="M63.46,28.49l.68,3.41c-.19.02-.39.04-.58.07-.36.05-.7.12-1.04.2l-1.38-3.4c.49-.09,1.02-.15,1.62-.18.23-.03.46-.07.7-.1"/>
            <path class="cls-39" d="M61.15,28.76l1.38,3.4c-.25.06-.5.13-.74.21l-1.66-3.36c.32-.1.66-.18,1.02-.25"/>
            <path class="cls-77" d="M60.13,29.02l1.66,3.36c-.26.08-.52.18-.76.28l-1.86-3.26c.3-.14.62-.27.97-.38"/>
          </g>
        </g>
      </g>
      <g class="cls-41">
        <g class="cls-33">
          <g class="cls-41">
            <path class="cls-29" d="M81.91,37.8l-2.63,1.4c-.21-.54-.48-1.06-.8-1.56s-.71-.99-1.15-1.44l1.78-2.56c.49.58.94,1.2,1.36,1.87.6.84,1.08,1.57,1.43,2.28"/>
            <path class="cls-19" d="M79.11,33.65l-1.78,2.56c-.34-.34-.71-.66-1.11-.97l1.67-2.83c.44.39.85.81,1.22,1.25"/>
            <path class="cls-16" d="M77.89,32.4l-1.67,2.83c-.4-.3-.83-.59-1.3-.85l1.53-3.05c.53.33,1,.69,1.44,1.07"/>
            <path class="cls-31" d="M76.45,31.33l-1.53,3.05c-.54-.31-1.13-.6-1.77-.87l1.23-3.23c.77.31,1.45.66,2.06,1.05"/>
            <path class="cls-36" d="M74.38,30.29l-1.23,3.23c-.89-.37-1.87-.7-2.93-.99-.39-.1-.77-.2-1.15-.28l.1-3.49c.46.12.93.27,1.42.45,1.47.28,2.71.64,3.79,1.08"/>
          </g>
        </g>
      </g>
      <g class="cls-41">
        <g class="cls-30">
          <g class="cls-41">
            <path class="cls-63" d="M64.73,39.5l-1.77.47s-.02-.08-.03-.11l1.67-.27s.09-.08.13-.09"/>
            <path class="cls-38" d="M64.6,39.58l-1.67.27s0-.02,0-.02l1.63-.2s.03-.03.04-.05"/>
            <path class="cls-26" d="M64.56,39.63l-1.63.2s-.02-.05-.03-.05c0,0,.03-.01.06-.03l1.38.61c-.01-.1,0-.23.02-.41.07-.15.14-.26.2-.33"/>
            <path class="cls-38" d="M64.33,40.37l-1.38-.61s.01-.01.02-.02l1.37.7s0-.04-.01-.07"/>
            <path class="cls-63" d="M64.34,40.43l-1.37-.7c.16-.13.49-.49.7-.73l1.09,1.27c.09.2-.33.56-.42.16"/>
            <path class="cls-38" d="M64.76,40.27l-1.09-1.27s.02-.02.03-.04l1.04,1.28s.01.02.02.03"/>
          </g>
        </g>
      </g>
      <g class="cls-41">
        <g class="cls-71">
          <g class="cls-41">
            <path class="cls-16" d="M61.01,56.69l-1.62,2.94c-.27-.18-.52-.38-.75-.59l1.75-2.66c.19.11.41.21.62.31"/>
            <path class="cls-19" d="M60.39,56.38l-1.75,2.66c-.18-.17-.34-.34-.49-.52l1.85-2.4c.11.09.25.18.4.26"/>
            <path class="cls-29" d="M60,56.11l-1.85,2.4c-.13-.16-.26-.33-.37-.51-.01-.02-.02-.04-.03-.05l2-2.12s.01.02.02.03c.06.09.14.17.24.25"/>
            <path class="cls-63" d="M59.75,55.83l-2,2.12c-.72-1.15-1.02-2.65-.89-4.49l2.8-2.51c-.08,2.74-.26,4.29.09,4.88"/>
            <path class="cls-38" d="M59.65,50.95l-2.8,2.51c.02-.26.04-.53.08-.8l2.75-2.94c0,.43-.02.84-.03,1.23"/>
          </g>
        </g>
      </g>
      <polygon points="52.27 54.5 50.44 51.59 56.93 52.66 53.18 54.65 52.27 54.5"/>
      <polygon points="79.47 45.67 81.65 47.74 75.09 46.29 72.92 44.23 79.47 45.67"/>
      <path d="M77.11,35.99l2.18,2.06c.54.51.99,1.06,1.37,1.65,1.48,2.33,1.81,5.02,1,8.03l-2.18-2.06c.82-3.01.49-5.69-1-8.03-.37-.59-.83-1.14-1.37-1.65Z"/>
      <path d="M77.93,43.28c-.22-.31-.5-.7-1.47-1.18-.5-.24-.83-2.67-.98-3.27-1.02-1.62-4.13-2.83-6.64-3.93l1.37-2.37c4.02,1.08,6.78,2.79,8.26,5.12,1.48,2.33,1.81,5.02,1,8.03,0,0-1.54-2.39-1.54-2.39Z"/>
      <polygon points="76.92 41.71 79.47 45.67 72.92 44.23 75.68 41.43 76.92 41.71"/>
      <path d="M73.9,49.85l2.18,2.06s.04.03.05.05c1.25,1.21,2.1,2.63,2.52,4.25.43,1.63.32,3.47-.31,5.53-.57,1.87-1.62,3.48-3.15,4.83-1.52,1.36-3.33,2.18-5.44,2.46-2.11.29-4.56.07-7.34-.68-2.99-.8-5.31-1.99-6.96-3.55l-2.18-2.06c1.65,1.56,3.96,2.75,6.96,3.55,2.79.75,5.24.97,7.34.68,2.11-.28,3.92-1.11,5.44-2.46,1.52-1.35,2.57-2.96,3.15-4.83.63-2.05.73-3.9.31-5.53-.42-1.63-1.26-3.04-2.52-4.25-.02-.02-.03-.03-.05-.05Z"/>
      <g class="cls-41">
        <g class="cls-2">
          <g class="cls-41">
            <path class="cls-63" d="M79.01,53.6l-2.41,1.15c-.04-.2-.08-.4-.13-.59-.19-.73-.46-1.42-.82-2.07l2.32-1.91c.38.82.6,1.68.85,2.65.07.26.13.52.2.78"/>
            <path class="cls-29" d="M77.97,50.18l-2.32,1.91c-.26-.48-.57-.93-.93-1.36l2.08-2.31c.52.58.89,1.16,1.16,1.76"/>
            <path class="cls-19" d="M76.8,48.42l-2.08,2.31c-.23-.28-.49-.56-.76-.82-.47-.45-1.06-.94-1.77-1.44l1.41-2.87c.75.58,1.38,1.14,1.94,1.68.51.39.92.77,1.27,1.15"/>
          </g>
        </g>
      </g>
      <g class="cls-41">
        <g class="cls-65">
          <g class="cls-41">
            <path class="cls-38" d="M77.59,62.86l-2.29-1.16c.36-.64.64-1.31.86-2.02.56-1.81.7-3.46.44-4.94l2.41-1.15c.45,1.89.61,3.63-.54,6.36-.25,1.23-.51,2.14-.88,2.9"/>
            <path class="cls-63" d="M79.01,53.6l-2.41,1.15c-.04-.2-.08-.4-.13-.59-.19-.73-.46-1.42-.82-2.07l2.32-1.91c.38.82.6,1.68.85,2.65.07.26.13.52.2.78"/>
          </g>
        </g>
      </g>
      <g class="cls-41">
        <g class="cls-43">
          <g class="cls-41">
            <path class="cls-61" d="M47.61,47.74l2.83,3.85c-.3,1.61-.39,3.1-.27,4.48l-3.54-.18c-.12-2.03.16-4.6.98-8.16"/>
            <path class="cls-56" d="M46.64,55.9l3.54.18c.05.61.15,1.2.29,1.76l-3.45.47c-.19-.72-.32-1.52-.37-2.41"/>
            <path class="cls-60" d="M47,58.31l3.45-.47c.11.44.24.86.39,1.26l-3.3.78c-.21-.49-.4-1.01-.55-1.57"/>
            <path class="cls-64" d="M47.55,59.88l3.3-.78c.15.4.33.79.53,1.17l-3.11,1.02c-.27-.46-.51-.93-.72-1.41"/>
            <path class="cls-77" d="M48.27,61.29l3.11-1.02c.12.23.26.46.4.68.13.21.27.41.42.6l-2.89,1.36c-.18-.25-.35-.51-.52-.77-.18-.28-.35-.56-.52-.84"/>
            <path class="cls-39" d="M49.31,62.91l2.89-1.36c.29.38.61.75.97,1.09l-2.77,1.65c-.39-.44-.75-.9-1.09-1.39"/>
            <path class="cls-32" d="M50.4,64.3l2.77-1.65c.33.32.68.62,1.06.91l-2.67,1.89c-.41-.36-.79-.74-1.15-1.15"/>
            <path class="cls-68" d="M51.55,65.44l2.67-1.89c.36.27.75.54,1.16.78l-2.55,2.08c-.46-.3-.89-.63-1.28-.97"/>
            <path class="cls-74" d="M52.83,66.41l2.55-2.08c.41.24.84.47,1.29.69l-2.36,2.22c-.54-.26-1.03-.53-1.49-.83"/>
            <path class="cls-57" d="M54.32,67.25l2.36-2.22c.46.22.95.42,1.46.61l-2.04,2.32c-.64-.22-1.24-.45-1.78-.71"/>
            <path class="cls-36" d="M56.1,67.96l2.04-2.32c.66.25,1.36.47,2.1.67.52.14,1.04.26,1.54.37l-1.06,2.56c-.59-.14-1.2-.33-1.85-.56-1.02-.2-1.94-.44-2.76-.71"/>
            <path class="cls-31" d="M60.71,69.23l1.06-2.56c.79.16,1.55.28,2.28.35l-.74,2.61c-.82-.05-1.68-.18-2.6-.4"/>
            <path class="cls-16" d="M63.31,69.63l.74-2.61c.66.06,1.3.09,1.91.08l-.5,2.52c-.69.05-1.4.06-2.14,0"/>
            <path class="cls-19" d="M65.46,69.62l.5-2.52c.56,0,1.1-.05,1.62-.12.52-.07,1.03-.18,1.52-.31l.55,2.44c-.67.17-1.42.28-2.3.31-.63.09-1.26.16-1.89.2"/>
            <path class="cls-29" d="M69.65,69.11l-.55-2.44c.59-.17,1.15-.38,1.68-.64l.98,2.22c-.63.36-1.31.65-2.12.86"/>
            <path class="cls-63" d="M71.77,68.25l-.98-2.22c.7-.34,1.35-.76,1.95-1.27l1.32,1.76c-.76.67-1.48,1.26-2.29,1.73"/>
            <path class="cls-38" d="M74.06,66.52l-1.32-1.76c.09-.08.19-.16.28-.24l1.4,1.68c-.12.11-.24.21-.36.32"/>
          </g>
        </g>
      </g>
      <g class="cls-41">
        <g class="cls-48">
          <g class="cls-41">
            <path class="cls-63" d="M74.42,66.2l-1.4-1.68c.94-.84,1.71-1.78,2.29-2.81l2.29,1.16c-.6,1.24-1.5,2.11-3.17,3.34"/>
            <path class="cls-38" d="M77.59,62.86l-2.29-1.16c.36-.64.64-1.31.86-2.02.56-1.81.7-3.46.44-4.94l2.41-1.15c.45,1.89.61,3.63-.54,6.36-.25,1.23-.51,2.14-.88,2.9"/>
          </g>
        </g>
      </g>
      <polygon class="cls-18" points="69.16 46.07 72.92 44.23 79.47 45.67 81.03 48.69 69.16 46.07"/>
      <g class="cls-41">
        <g class="cls-21">
          <g class="cls-41">
            <path class="cls-38" d="M81.03,48.69l-1.56-3.02c.29-1.08.44-2.12.44-3.12l2.7-.17c-.19,1.58-.72,3.55-1.58,6.31"/>
            <path class="cls-63" d="M82.61,42.38l-2.7.17c0-1.18-.21-2.29-.63-3.35l2.63-1.4c.7,1.4.94,2.71.71,4.58"/>
            <path class="cls-29" d="M81.91,37.8l-2.63,1.4c-.21-.54-.48-1.06-.8-1.56s-.71-.99-1.15-1.44l1.78-2.56c.49.58.94,1.2,1.36,1.87.6.84,1.08,1.57,1.43,2.28"/>
            <path class="cls-19" d="M79.11,33.65l-1.78,2.56c-.34-.34-.71-.66-1.11-.97l1.67-2.83c.44.39.85.81,1.22,1.25"/>
            <path class="cls-16" d="M77.89,32.4l-1.67,2.83c-.4-.3-.83-.59-1.3-.85l1.53-3.05c.53.33,1,.69,1.44,1.07"/>
            <path class="cls-31" d="M76.45,31.33l-1.53,3.05c-.54-.31-1.13-.6-1.77-.87l1.23-3.23c.77.31,1.45.66,2.06,1.05"/>
            <path class="cls-36" d="M74.38,30.29l-1.23,3.23c-.89-.37-1.87-.7-2.93-.99-.39-.1-.77-.2-1.15-.28l.1-3.49c.46.12.93.27,1.42.45,1.47.28,2.71.64,3.79,1.08"/>
            <path class="cls-57" d="M69.17,28.76l-.1,3.49c-.5-.11-.99-.19-1.47-.26l-.17-3.57c.55.07,1.13.18,1.74.34"/>
            <path class="cls-74" d="M67.43,28.42l.17,3.57c-.55-.08-1.08-.12-1.6-.14l-.4-3.53c.59,0,1.19.02,1.83.1"/>
          </g>
        </g>
      </g>
      <g class="cls-41">
        <g class="cls-22">
          <g class="cls-41">
            <path class="cls-63" d="M74.42,66.2l-1.4-1.68c.94-.84,1.71-1.78,2.29-2.81l2.29,1.16c-.6,1.24-1.5,2.11-3.17,3.34"/>
            <path class="cls-38" d="M77.59,62.86l-2.29-1.16c.36-.64.64-1.31.86-2.02.56-1.81.7-3.46.44-4.94l2.41-1.15c.45,1.89.61,3.63-.54,6.36-.25,1.23-.51,2.14-.88,2.9"/>
          </g>
        </g>
      </g>
      <g class="cls-41">
        <g class="cls-79">
          <g class="cls-41">
            <path class="cls-61" d="M47.61,47.74l2.83,3.85c-.3,1.61-.39,3.1-.27,4.48l-3.54-.18c-.12-2.03.16-4.6.98-8.16"/>
            <path class="cls-56" d="M46.64,55.9l3.54.18c.05.61.15,1.2.29,1.76l-3.45.47c-.19-.72-.32-1.52-.37-2.41"/>
            <path class="cls-60" d="M47,58.31l3.45-.47c.11.44.24.86.39,1.26l-3.3.78c-.21-.49-.4-1.01-.55-1.57"/>
            <path class="cls-64" d="M47.55,59.88l3.3-.78c.15.4.33.79.53,1.17l-3.11,1.02c-.27-.46-.51-.93-.72-1.41"/>
            <path class="cls-77" d="M48.27,61.29l3.11-1.02c.12.23.26.46.4.68.13.21.27.41.42.6l-2.89,1.36c-.18-.25-.35-.51-.52-.77-.18-.28-.35-.56-.52-.84"/>
            <path class="cls-39" d="M49.31,62.91l2.89-1.36c.29.38.61.75.97,1.09l-2.77,1.65c-.39-.44-.75-.9-1.09-1.39"/>
            <path class="cls-32" d="M50.4,64.3l2.77-1.65c.33.32.68.62,1.06.91l-2.67,1.89c-.41-.36-.79-.74-1.15-1.15"/>
            <path class="cls-68" d="M51.55,65.44l2.67-1.89c.36.27.75.54,1.16.78l-2.55,2.08c-.46-.3-.89-.63-1.28-.97"/>
            <path class="cls-74" d="M52.83,66.41l2.55-2.08c.41.24.84.47,1.29.69l-2.36,2.22c-.54-.26-1.03-.53-1.49-.83"/>
            <path class="cls-57" d="M54.32,67.25l2.36-2.22c.46.22.95.42,1.46.61l-2.04,2.32c-.64-.22-1.24-.45-1.78-.71"/>
            <path class="cls-36" d="M56.1,67.96l2.04-2.32c.66.25,1.36.47,2.1.67.52.14,1.04.26,1.54.37l-1.06,2.56c-.59-.14-1.2-.33-1.85-.56-1.02-.2-1.94-.44-2.76-.71"/>
            <path class="cls-31" d="M60.71,69.23l1.06-2.56c.79.16,1.55.28,2.28.35l-.74,2.61c-.82-.05-1.68-.18-2.6-.4"/>
            <path class="cls-16" d="M63.31,69.63l.74-2.61c.66.06,1.3.09,1.91.08l-.5,2.52c-.69.05-1.4.06-2.14,0"/>
            <path class="cls-19" d="M65.46,69.62l.5-2.52c.56,0,1.1-.05,1.62-.12.52-.07,1.03-.18,1.52-.31l.55,2.44c-.67.17-1.42.28-2.3.31-.63.09-1.26.16-1.89.2"/>
            <path class="cls-29" d="M69.65,69.11l-.55-2.44c.59-.17,1.15-.38,1.68-.64l.98,2.22c-.63.36-1.31.65-2.12.86"/>
            <path class="cls-63" d="M71.77,68.25l-.98-2.22c.7-.34,1.35-.76,1.95-1.27l1.32,1.76c-.76.67-1.48,1.26-2.29,1.73"/>
            <path class="cls-38" d="M74.06,66.52l-1.32-1.76c.09-.08.19-.16.28-.24l1.4,1.68c-.12.11-.24.21-.36.32"/>
          </g>
        </g>
      </g>
      <g class="cls-41">
        <g class="cls-40">
          <g class="cls-41">
            <path class="cls-63" d="M71.77,68.25l-.98-2.22c.7-.34,1.35-.76,1.95-1.27l1.32,1.76c-.76.67-1.48,1.26-2.29,1.73"/>
            <path class="cls-38" d="M74.06,66.52l-1.32-1.76c.09-.08.19-.16.28-.24l1.4,1.68c-.12.11-.24.21-.36.32"/>
          </g>
        </g>
      </g>
      <g class="cls-41">
        <g class="cls-42">
          <g class="cls-41">
            <path class="cls-63" d="M74.42,66.2l-1.4-1.68c.94-.84,1.71-1.78,2.29-2.81l2.29,1.16c-.6,1.24-1.5,2.11-3.17,3.34"/>
            <path class="cls-38" d="M77.59,62.86l-2.29-1.16c.36-.64.64-1.31.86-2.02.56-1.81.7-3.46.44-4.94l2.41-1.15c.45,1.89.61,3.63-.54,6.36-.25,1.23-.51,2.14-.88,2.9"/>
            <path class="cls-63" d="M79.01,53.6l-2.41,1.15c-.04-.2-.08-.4-.13-.59-.19-.73-.46-1.42-.82-2.07l2.32-1.91c.38.82.6,1.68.85,2.65.07.26.13.52.2.78"/>
            <path class="cls-29" d="M77.97,50.18l-2.32,1.91c-.26-.48-.57-.93-.93-1.36l2.08-2.31c.52.58.89,1.16,1.16,1.76"/>
            <path class="cls-19" d="M76.8,48.42l-2.08,2.31c-.23-.28-.49-.56-.76-.82-.47-.45-1.06-.94-1.77-1.44l1.41-2.87c.75.58,1.38,1.14,1.94,1.68.51.39.92.77,1.27,1.15"/>
            <path class="cls-16" d="M73.6,45.59l-1.41,2.87c-1.18-.85-2.68-1.77-4.51-2.78-1.99-1.09-3.44-2.01-4.35-2.79l1.71-2.65c.78.49,2.14,1.26,3.64,2.36,2.11,1.01,3.68,2.01,4.93,2.97"/>
            <path class="cls-19" d="M65.04,40.25l-1.71,2.65c-.27-.23-.5-.45-.67-.65l1.85-2.35c.12.09.3.21.53.36"/>
            <path class="cls-29" d="M64.51,39.89l-1.85,2.35c-.1-.11-.18-.23-.25-.33,0,0,0,0,0,0l1.98-2.16s0,0,0,0c.02.04.07.08.13.14"/>
            <path class="cls-63" d="M64.38,39.76l-1.98,2.16s-.02-.02-.02-.04l2.04-2.09s-.03-.02-.04-.04"/>
            <path class="cls-38" d="M64.42,39.8l-2.04,2.09s-.01-.02-.02-.04l2.1-2.02s-.03-.02-.04-.03"/>
            <path class="cls-26" d="M64.46,39.83l-2.1,2.02c-.06-.1-.11-.19-.16-.29l2.52-1.6c-.07,0-.15-.05-.26-.13"/>
            <path class="cls-38" d="M64.72,39.96l-2.52,1.6c-.04-.07-.07-.15-.1-.22l2.74-1.4s-.07.03-.13.03"/>
            <path class="cls-63" d="M64.85,39.94l-2.74,1.4c-.17-.43-.21-.87-.13-1.33l2.62-.43c.3-.3.44.22.25.35"/>
            <path class="cls-38" d="M64.6,39.58l-2.62.43s0-.04.01-.06l2.57-.32s.03-.03.04-.05"/>
            <path class="cls-26" d="M64.56,39.63l-2.57.32c.02-.09.04-.18.07-.27.03-.1.06-.19.1-.29l2.17.97c-.01-.1,0-.23.02-.41.07-.15.14-.26.2-.33"/>
            <path class="cls-38" d="M64.33,40.37l-2.17-.97s.02-.05.03-.07l2.16,1.11s0-.04-.01-.07"/>
            <path class="cls-63" d="M64.34,40.43l-2.16-1.11c.19-.44.48-.79.86-1.05l1.71,2c.09.2-.33.56-.42.16"/>
            <path class="cls-38" d="M64.76,40.27l-1.71-2c.06-.04.13-.09.2-.13l1.42,2.04s.08.05.09.08"/>
            <path class="cls-26" d="M64.67,40.19l-1.42-2.04c.14-.08.29-.15.45-.21.02,0,.04-.01.06-.02l.4,2.28s-.02,0-.03,0c.28-.06.45-.06.54-.02"/>
            <path class="cls-38" d="M64.16,40.2l-.4-2.28s.04-.01.06-.02l.37,2.29s-.02,0-.03,0"/>
            <path class="cls-63" d="M64.19,40.19l-.37-2.29s.04-.01.06-.02l.35,2.3s-.02,0-.03,0"/>
            <path class="cls-29" d="M64.22,40.18l-.35-2.3c.11-.04.22-.07.33-.1l.2,2.38c-.07,0-.13.02-.18.03"/>
            <path class="cls-19" d="M64.4,40.15l-.2-2.38c.22-.06.45-.11.69-.14l-.04,2.52c-.17-.01-.32-.02-.45,0"/>
            <path class="cls-16" d="M64.85,40.16l.04-2.52c.34-.05.71-.07,1.08-.07l-.34,2.69c-.27-.04-.53-.08-.77-.1"/>
            <path class="cls-31" d="M65.63,40.25l.34-2.69c.74.01,1.53.13,2.39.35l-1.31,2.41c-.37.08-.91,0-1.43-.07"/>
            <path class="cls-16" d="M67.06,40.32l1.31-2.41s.08.02.11.03c0,0,0,0,0,0l-1.38,2.37s0,0,0,0c-.02,0-.03,0-.05.01"/>
            <path class="cls-31" d="M67.11,40.32l1.38-2.37s.07.02.11.03l-1.46,2.37s-.02-.02-.03-.03"/>
            <path class="cls-36" d="M67.14,40.35l1.46-2.37s.07.02.1.03l-1.53,2.37s-.02-.02-.03-.03"/>
            <path class="cls-57" d="M67.16,40.38l1.53-2.37c.8.23,1.49.51,2.06.84l-2.48,2.1c-.43-.16-.87-.33-1.11-.57"/>
            <path class="cls-74" d="M68.27,40.95l2.48-2.1c.32.18.6.38.84.59l-2.67,1.75c-.19-.08-.42-.16-.65-.24"/>
            <path class="cls-68" d="M68.92,41.19l2.67-1.75c.11.1.21.2.31.3l-2.76,1.56c-.06-.03-.14-.07-.22-.1"/>
            <path class="cls-32" d="M69.14,41.29l2.76-1.56c.06.07.12.14.18.21l-2.83,1.42s-.07-.05-.11-.07"/>
            <path class="cls-39" d="M69.25,41.36l2.83-1.42c.05.06.09.11.13.17l-2.91,1.31s-.03-.04-.06-.06"/>
            <path class="cls-77" d="M69.31,41.42l2.91-1.31s.01.02.02.03c.03.05.07.1.1.15l-3,1.19s-.02-.04-.03-.05c0,0,0,0,0-.01"/>
            <path class="cls-64" d="M69.34,41.48l3-1.19c.05.07.09.14.13.22l-3.1,1.07s-.01-.08-.02-.1"/>
            <path class="cls-60" d="M69.37,41.59l3.1-1.07c.06.11.11.22.16.33l-3.25.95c0-.08,0-.15-.01-.21"/>
            <path class="cls-56" d="M69.38,41.8l3.25-.95c.1.23.17.47.23.73l-3.52.87c.02-.27.04-.48.04-.65"/>
            <path class="cls-61" d="M69.34,42.44l3.52-.87c.18.76.19,1.64.06,2.65l-3.75,1.85c0-1.65.11-2.86.18-3.63"/>
          </g>
        </g>
      </g>
      <path class="cls-25" d="M65.32,4.11c25.51,6.83,39.74,33.37,31.78,59.26-7.96,25.89-35.09,41.34-60.6,34.51C11,91.04-3.23,64.51,4.73,38.62,12.68,12.73,39.82-2.73,65.32,4.11ZM74.42,66.2c2.71-1.98,3.38-3.01,4.05-6.24,1.31-3.1.93-4.93.35-7.14-.55-2.14-.96-3.78-3.28-5.56-1.5-1.44-3.49-3.04-6.86-4.65-2.2-1.62-4.1-2.53-4.3-2.86.87.81.61-1.09-.02.2-.24,1.49,1.22-.08-.22.25.61-.24,2.2.3,2.97.11.44.55,1.99.8,2.21,1.12.2.28-.17,1.81-.15,4.64l11.87,2.61c2.38-7.66,2.22-9.28-.56-13.17-1.94-3.05-4.35-5.25-9.88-6.31-3.15-1.16-5.41-.98-7.83-.62-3.31.14-4.74,1.34-6.59,2.96-2.57,1.83-3.13,2.67-3.74,5.7-1.65,4.51-1.46,5.85,1.21,9.71,1.35,2.18,3.21,4.25,7.32,6.13,2.36,1.42,3.96,2.29,4.52,2.67-.04.45.92.8.93.83.01.03-.56.86-.02.17-.08.27-1.53.77-.87.8-.56.26-2.27-.29-3.13-.09-.4-.5-2.2-.94-2.62-1.6-.42-.65-.14-2.58-.08-6.14l-12.07-1.98c-1.91,8.29-.85,11.23,1.17,14.4,2.03,3.17,4.49,5.45,10.07,6.54,3.44,1.23,5.94,1.1,8.49.75,3.51-.15,5.07-1.44,7.06-3.22M47.91,49.11l7.21-23.45-12.06-3.23-7.33,23.86c-.96,1.6-1.33,3.38-1.44,3.44.05-.03-1.24-.62-.83-.13,1.03.09-.87-1.81-.68-.6-.07-.24.48-1.56,1.2-5.79l-11.99-1.76c-2.67,7.5-1.99,10.29-.45,13.33,1.56,3.06,3.26,5.11,8.23,6.06,3.77,1.4,6.12.89,8.78-.05,3.53-.9,4.49-1.63,6.33-4.81,1.15-1.67,2.29-3.59,3.03-6.88"/>
      <path d="M68.84,34.89c2.51,1.1,5.62,2.31,6.64,3.93.19.78.68,4.52,1.43,2.88l-1.24-.27c.49-.65-.34-1.85-1.51-3.53-1.15-1.63-2.1-2.85-5.31-3.28-2.99-1.2-4.58-.67-6.58.09-3.13.97-2.75.56-3.51,3.74-1.11,2.85-1.14,2.43.68,4.67,1,1.5,2.62,3.11,6.26,4.67,2.46,1.6,4.66,2.8,5.69,3.79.2.65,1.47,1.84,1.76,2.95.28,1.05-.32,2.91-.27,3.92-.48.51-1.9,2.7-2.24,3.42-1.04.93-3.12,1.29-3.82,1.71-1.66.23-4.07-.34-6.2-.61-2.52-1.09-5.7-2.38-6.85-4.18-1.15-1.8-.98-5.09-1.49-4.31l.91.15c-.51.93.34,2.57,1.61,4.55,1.28,1.97,2.31,3.38,5.84,3.94,3.3,1.31,5.01.7,7.12-.26,3.33-1.19,3.58-2.51,4.23-4.63,1.02-2.24.39-2.83-.15-4.13-.54-1.28-.85-2.28-2.86-3.23-.8-.55-2.36-1.57-4.97-2.96-2.3-1.71-4.65-3.1-5.32-4.21-.15-.79-.58-4.34-.65-4.98.41-.27,1.73-2.29,1.89-2.85.89-.78,2.8-1.06,3.45-1.49,1.52-.23,3.7.33,5.48.49Z"/>
      <g class="cls-41">
        <g class="cls-11">
          <g class="cls-41">
            <path class="cls-38" d="M87.53,13.35l2.18,2.06c1.96,1.86,3.74,3.87,5.35,6.01l-2.18-2.06c-1.61-2.14-3.4-4.16-5.35-6.01"/>
            <path class="cls-63" d="M92.88,19.36l2.18,2.06c1.69,2.25,3.19,4.65,4.47,7.17l-2.18-2.06c-1.28-2.52-2.77-4.92-4.47-7.17"/>
            <path class="cls-29" d="M97.35,26.53l2.18,2.06c1.27,2.5,2.33,5.11,3.16,7.82l-2.18-2.06c-.83-2.7-1.89-5.32-3.16-7.82"/>
            <path class="cls-19" d="M100.51,34.35l2.18,2.06c.93,3,1.57,6.11,1.92,9.29l-2.18-2.06c-.35-3.18-1-6.29-1.92-9.29"/>
            <path class="cls-16" d="M102.44,43.64l2.18,2.06c.55,5.01.36,10.2-.65,15.42l-2.18-2.06c1.01-5.22,1.21-10.41.65-15.42"/>
            <path class="cls-31" d="M101.78,59.06l2.18,2.06c-.36,1.84-.82,3.69-1.38,5.53-.91,2.95-2.05,5.78-3.4,8.46l-2.18-2.06c1.35-2.68,2.49-5.51,3.4-8.46.57-1.84,1.03-3.69,1.38-5.53"/>
            <path class="cls-16" d="M97,73.05l2.18,2.06c-2.39,4.74-5.43,9.03-8.96,12.79l-2.18-2.06c3.54-3.76,6.57-8.05,8.96-12.79"/>
            <path class="cls-19" d="M88.04,85.84l2.18,2.06c-2.25,2.39-4.7,4.56-7.31,6.5l-2.18-2.06c2.61-1.93,5.06-4.11,7.31-6.5"/>
            <path class="cls-29" d="M80.72,92.34l2.18,2.06c-2.35,1.74-4.83,3.28-7.41,4.62l-2.18-2.06c2.58-1.34,5.06-2.88,7.41-4.62"/>
            <path class="cls-63" d="M73.31,96.96l2.18,2.06c-2.59,1.34-5.29,2.47-8.06,3.37l-2.18-2.06c2.77-.9,5.47-2.03,8.06-3.37"/>
            <path class="cls-38" d="M65.25,100.33l2.18,2.06c-3.15,1.03-6.39,1.76-9.69,2.17l-2.18-2.06c3.3-.42,6.55-1.15,9.69-2.17"/>
            <path class="cls-26" d="M55.56,102.51l2.18,2.06c-6.37.8-12.95.42-19.43-1.32-8.13-2.18-15.18-6.24-20.83-11.61l-2.18-2.06c5.66,5.37,12.7,9.43,20.83,11.61,6.48,1.74,13.06,2.12,19.43,1.32"/>
          </g>
        </g>
      </g>
      <g class="cls-41">
        <g class="cls-34">
          <g class="cls-41">
            <path class="cls-36" d="M65.32,4.11l1.37-2.37c1.81.48,3.56,1.06,5.26,1.73l-1.67,2.27c-1.6-.63-3.25-1.17-4.96-1.63"/>
            <path class="cls-57" d="M70.28,5.73l1.67-2.27c1.79.7,3.52,1.5,5.17,2.38l-1.97,2.13c-1.56-.84-3.19-1.59-4.88-2.25"/>
            <path class="cls-74" d="M75.15,7.98l1.97-2.13c1.62.87,3.18,1.82,4.67,2.84l-2.24,1.97c-1.4-.97-2.87-1.87-4.4-2.68"/>
            <path class="cls-68" d="M79.55,10.66l2.24-1.97c1.48,1.02,2.9,2.13,4.24,3.3l-2.48,1.78c-1.27-1.1-2.6-2.14-4-3.11"/>
            <path class="cls-32" d="M83.55,13.77l2.48-1.78c1.36,1.19,2.65,2.44,3.86,3.77l-2.7,1.57c-1.14-1.25-2.36-2.43-3.64-3.55"/>
            <path class="cls-39" d="M87.19,17.32l2.7-1.57c1.25,1.37,2.42,2.8,3.5,4.3l-2.9,1.32c-1.02-1.41-2.12-2.76-3.3-4.05"/>
            <path class="cls-77" d="M90.49,21.37l2.9-1.32c1.13,1.57,2.17,3.2,3.11,4.9l-3.08,1.04c-.89-1.6-1.87-3.14-2.94-4.62"/>
            <path class="cls-64" d="M93.43,25.99l3.08-1.04c1.02,1.83,1.92,3.72,2.69,5.68l-3.23.72c-.73-1.84-1.58-3.63-2.54-5.35"/>
            <path class="cls-60" d="M95.97,31.34l3.23-.72c.87,2.19,1.59,4.44,2.15,6.76l-3.35.33c-.52-2.18-1.2-4.31-2.02-6.37"/>
            <path class="cls-56" d="M97.99,37.71l3.35-.33c.69,2.85,1.13,5.79,1.3,8.78l-3.43-.17c-.17-2.82-.58-5.59-1.23-8.28"/>
            <path class="cls-61" d="M99.22,45.99l3.43.17c.36,6.01-.35,12.24-2.25,18.43-2.24,7.3-5.92,13.81-10.62,19.31l-2.69-2.33c4.43-5.18,7.9-11.33,10.01-18.21,1.79-5.84,2.46-11.71,2.12-17.37"/>
            <path class="cls-56" d="M87.09,81.57l2.69,2.33c-1.99,2.33-4.16,4.47-6.49,6.42l-2.32-2.69c2.19-1.83,4.24-3.86,6.12-6.05"/>
            <path class="cls-60" d="M80.97,87.63l2.32,2.69c-1.89,1.58-3.87,3.02-5.94,4.33l-1.98-2.94c1.95-1.23,3.82-2.59,5.6-4.08"/>
            <path class="cls-64" d="M75.36,91.71l1.98,2.94c-1.84,1.16-3.75,2.21-5.71,3.14l-1.65-3.12c1.85-.88,3.65-1.87,5.39-2.96"/>
            <path class="cls-77" d="M69.98,94.67l1.65,3.12c-1.8.85-3.65,1.61-5.54,2.26l-1.34-3.25c1.78-.61,3.52-1.32,5.22-2.13"/>
            <path class="cls-39" d="M64.76,96.8l1.34,3.25c-1.8.62-3.63,1.14-5.49,1.57l-1.03-3.34c1.75-.4,3.48-.89,5.18-1.48"/>
            <path class="cls-32" d="M59.58,98.28l1.03,3.34c-1.8.41-3.62.72-5.45.94l-.71-3.39c1.73-.2,3.45-.5,5.14-.89"/>
            <path class="cls-68" d="M54.44,99.16l.71,3.39c-1.81.21-3.64.33-5.48.35l-.4-3.41c1.73-.02,3.46-.13,5.17-.33"/>
            <path class="cls-74" d="M49.28,99.49l.4,3.41c-1.84.02-3.7-.06-5.55-.25l-.08-3.4c1.75.18,3.5.25,5.24.24"/>
            <path class="cls-57" d="M44.04,99.26l.08,3.4c-1.91-.19-3.82-.49-5.73-.91l.24-3.35c1.8.39,3.6.68,5.4.86"/>
            <path class="cls-36" d="M38.64,98.4l-.24,3.35c-.76-.17-1.51-.35-2.27-.55-1.24-.33-2.45-.71-3.64-1.12l.58-3.25c1.12.39,2.26.75,3.43,1.06.71.19,1.42.36,2.14.52"/>
            <path class="cls-31" d="M33.07,96.82l-.58,3.25c-2.09-.73-4.09-1.6-6.01-2.58l.93-3.1c1.81.92,3.7,1.74,5.67,2.43"/>
            <path class="cls-16" d="M27.4,94.39l-.93,3.1c-2.16-1.1-4.21-2.35-6.14-3.74l1.28-2.89c1.82,1.31,3.75,2.49,5.79,3.53"/>
            <path class="cls-19" d="M21.62,90.86l-1.28,2.89c-2.29-1.64-4.42-3.47-6.36-5.47l1.64-2.58c1.83,1.88,3.83,3.6,5.99,5.15"/>
            <path class="cls-29" d="M15.62,85.71l-1.64,2.58c-2.48-2.54-4.67-5.35-6.53-8.36l2.01-2.1c1.75,2.84,3.81,5.48,6.15,7.88"/>
            <path class="cls-63" d="M9.47,77.82l-2.01,2.1c-2.81-4.55-4.88-9.58-6.1-14.89l2.36-1.25c1.15,5,3.1,9.74,5.75,14.04"/>
            <path class="cls-38" d="M3.72,63.79l-2.36,1.25c-1.94-8.45-1.72-17.61,1.07-26.7,3.14-10.2,9.08-18.88,16.7-25.38l1.35,1.73c-7.18,6.13-12.79,14.31-15.74,23.93-2.63,8.57-2.84,17.2-1.01,25.17"/>
            <path class="cls-63" d="M20.47,14.69l-1.35-1.73c4.26-3.64,9.05-6.59,14.16-8.76l.54,2.23c-4.82,2.04-9.33,4.83-13.35,8.26"/>
            <path class="cls-29" d="M33.82,6.43l-.54-2.23c3.37-1.43,6.88-2.51,10.47-3.21l-.06,2.41c-3.39.67-6.7,1.69-9.87,3.03"/>
            <path class="cls-19" d="M43.7,3.4l.06-2.41c2.8-.55,5.65-.87,8.52-.95l-.55,2.46c-2.71.07-5.4.38-8.04.89"/>
            <path class="cls-16" d="M51.73,2.51l.55-2.46c2.43-.07,4.88.04,7.33.33l-.97,2.45c-2.31-.27-4.62-.38-6.91-.31"/>
            <path class="cls-31" d="M58.64,2.82l.97-2.45c2.17.26,4.35.66,6.51,1.21l-1.34,2.38c-2.04-.52-4.09-.9-6.14-1.14"/>
            <path class="cls-36" d="M64.78,3.97l1.34-2.38c.19.05.38.1.57.15l-1.37,2.37c-.18-.05-.36-.09-.54-.14"/>
          </g>
        </g>
      </g>
    </g>
  </g>
</svg>